<svg width="113" height="25" viewBox="0 0 113 25" fill="none" xmlns="http://www.w3.org/2000/svg">
<path d="M29.032 10.296C29.48 9.512 30.136 8.872 31 8.376C31.864 7.88 32.848 7.632 33.952 7.632C35.136 7.632 36.2 7.912 37.144 8.472C38.088 9.032 38.832 9.824 39.376 10.848C39.92 11.856 40.192 13.032 40.192 14.376C40.192 15.704 39.92 16.888 39.376 17.928C38.832 18.968 38.08 19.776 37.12 20.352C36.176 20.928 35.12 21.216 33.952 21.216C32.816 21.216 31.816 20.968 30.952 20.472C30.104 19.976 29.464 19.344 29.032 18.576V21H26.848V3.24H29.032V10.296ZM37.96 14.376C37.96 13.384 37.76 12.52 37.36 11.784C36.96 11.048 36.416 10.488 35.728 10.104C35.056 9.72 34.312 9.528 33.496 9.528C32.696 9.528 31.952 9.728 31.264 10.128C30.592 10.512 30.048 11.08 29.632 11.832C29.232 12.568 29.032 13.424 29.032 14.4C29.032 15.392 29.232 16.264 29.632 17.016C30.048 17.752 30.592 18.32 31.264 18.72C31.952 19.104 32.696 19.296 33.496 19.296C34.312 19.296 35.056 19.104 35.728 18.72C36.416 18.32 36.96 17.752 37.36 17.016C37.76 16.264 37.96 15.384 37.96 14.376ZM55.0668 13.92C55.0668 14.336 55.0428 14.776 54.9948 15.24H44.4828C44.5628 16.536 45.0028 17.552 45.8028 18.288C46.6188 19.008 47.6028 19.368 48.7548 19.368C49.6988 19.368 50.4828 19.152 51.1068 18.72C51.7468 18.272 52.1948 17.68 52.4508 16.944H54.8028C54.4508 18.208 53.7468 19.24 52.6908 20.04C51.6348 20.824 50.3228 21.216 48.7548 21.216C47.5068 21.216 46.3868 20.936 45.3948 20.376C44.4188 19.816 43.6508 19.024 43.0908 18C42.5308 16.96 42.2508 15.76 42.2508 14.4C42.2508 13.04 42.5228 11.848 43.0668 10.824C43.6108 9.8 44.3708 9.016 45.3468 8.472C46.3388 7.912 47.4748 7.632 48.7548 7.632C50.0028 7.632 51.1068 7.904 52.0668 8.448C53.0268 8.992 53.7628 9.744 54.2748 10.704C54.8028 11.648 55.0668 12.72 55.0668 13.92ZM52.8108 13.464C52.8108 12.632 52.6268 11.92 52.2588 11.328C51.8908 10.72 51.3868 10.264 50.7468 9.96C50.1228 9.64 49.4268 9.48 48.6588 9.48C47.5548 9.48 46.6108 9.832 45.8268 10.536C45.0588 11.24 44.6188 12.216 44.5068 13.464H52.8108ZM73.7656 7.608C74.7896 7.608 75.7016 7.824 76.5016 8.256C77.3016 8.672 77.9336 9.304 78.3976 10.152C78.8616 11 79.0936 12.032 79.0936 13.248V21H76.9336V13.56C76.9336 12.248 76.6056 11.248 75.9496 10.56C75.3096 9.856 74.4376 9.504 73.3336 9.504C72.1976 9.504 71.2936 9.872 70.6216 10.608C69.9496 11.328 69.6136 12.376 69.6136 13.752V21H67.4536V13.56C67.4536 12.248 67.1256 11.248 66.4696 10.56C65.8296 9.856 64.9576 9.504 63.8536 9.504C62.7176 9.504 61.8136 9.872 61.1416 10.608C60.4696 11.328 60.1336 12.376 60.1336 13.752V21H57.9496V7.848H60.1336V9.744C60.5656 9.056 61.1416 8.528 61.8616 8.16C62.5976 7.792 63.4056 7.608 64.2856 7.608C65.3896 7.608 66.3656 7.856 67.2136 8.352C68.0616 8.848 68.6936 9.576 69.1096 10.536C69.4776 9.608 70.0856 8.888 70.9336 8.376C71.7816 7.864 72.7256 7.608 73.7656 7.608ZM85.3641 9.744C85.8281 9.104 86.4601 8.584 87.2601 8.184C88.0761 7.768 88.9801 7.56 89.9721 7.56C91.1401 7.56 92.1961 7.84 93.1401 8.4C94.0841 8.96 94.8281 9.76 95.3721 10.8C95.9161 11.824 96.1881 13 96.1881 14.328C96.1881 15.656 95.9161 16.848 95.3721 17.904C94.8281 18.944 94.0761 19.76 93.1161 20.352C92.1721 20.928 91.1241 21.216 89.9721 21.216C88.9481 21.216 88.0361 21.016 87.2361 20.616C86.4521 20.216 85.8281 19.704 85.3641 19.08V21H82.6281V3.24H85.3641V9.744ZM93.4041 14.328C93.4041 13.416 93.2121 12.632 92.8281 11.976C92.4601 11.304 91.9641 10.8 91.3401 10.464C90.7321 10.112 90.0761 9.936 89.3721 9.936C88.6841 9.936 88.0281 10.112 87.4041 10.464C86.7961 10.816 86.3001 11.328 85.9161 12C85.5481 12.672 85.3641 13.464 85.3641 14.376C85.3641 15.288 85.5481 16.088 85.9161 16.776C86.3001 17.448 86.7961 17.96 87.4041 18.312C88.0281 18.664 88.6841 18.84 89.3721 18.84C90.0761 18.84 90.7321 18.664 91.3401 18.312C91.9641 17.944 92.4601 17.416 92.8281 16.728C93.2121 16.04 93.4041 15.24 93.4041 14.328ZM100.286 6.024C99.7898 6.024 99.3738 5.856 99.0378 5.52C98.7018 5.184 98.5338 4.768 98.5338 4.272C98.5338 3.776 98.7018 3.36 99.0378 3.024C99.3738 2.688 99.7898 2.52 100.286 2.52C100.766 2.52 101.174 2.688 101.51 3.024C101.846 3.36 102.014 3.776 102.014 4.272C102.014 4.768 101.846 5.184 101.51 5.52C101.174 5.856 100.766 6.024 100.286 6.024ZM101.63 7.776V21H98.8938V7.776H101.63ZM108.414 10.008V17.328C108.414 17.824 108.526 18.184 108.75 18.408C108.99 18.616 109.39 18.72 109.95 18.72H111.63V21H109.47C108.238 21 107.294 20.712 106.638 20.136C105.982 19.56 105.654 18.624 105.654 17.328V10.008H104.094V7.776H105.654V4.488H108.414V7.776H111.63V10.008H108.414Z" fill="#273176"/>
<rect width="8" height="8" fill="#273176"/>
<rect x="8" y="8" width="8" height="8" fill="#273176"/>
<rect y="16" width="8" height="8" fill="#273176"/>
<path d="M8 16H16L8 24V16Z" fill="#273176"/>
</svg>
