<?xml version="1.0" standalone="no"?>
<!DOCTYPE svg PUBLIC "-//W3C//DTD SVG 20010904//EN"
 "http://www.w3.org/TR/2001/REC-SVG-20010904/DTD/svg10.dtd">
<svg version="1.0" xmlns="http://www.w3.org/2000/svg"
 width="389.000000pt" height="389.000000pt" viewBox="0 0 389.000000 389.000000"
 preserveAspectRatio="xMidYMid meet">
<metadata>
Created by potrace 1.14, written by Peter Selinger 2001-2017
</metadata>
<g transform="translate(0.000000,389.000000) scale(0.100000,-0.100000)"
fill="#000000" stroke="none">
<path d="M652 3241 l3 -646 645 -1 645 -2 -1 642 c-1 352 -2 644 -3 647 0 3
-291 6 -646 6 l-645 0 2 -646z"/>
<path d="M1962 2589 c-16 -6 -17 -53 -17 -648 l0 -641 -30 -1 c-16 0 -307 -1
-645 -2 l-615 -2 -3 -646 -2 -646 647 0 648 0 648 647 647 647 0 647 0 646
-22 1 c-157 4 -1244 2 -1256 -2z"/>
</g>
</svg>
