<svg width="406" height="312" viewBox="0 0 406 312" fill="none" xmlns="http://www.w3.org/2000/svg">
<g clip-path="url(#clip0_609_4544)">
<g opacity="0.1">
<rect width="98.9993" height="98.9993" transform="matrix(-1 0 0 1 210 34)" fill="#273176"/>
<rect width="98.9993" height="98.9993" transform="matrix(-1 0 0 1 110.999 132.998)" fill="#273176"/>
<rect width="98.9993" height="98.9993" transform="matrix(-1 0 0 1 210 231.999)" fill="#273176"/>
<path d="M110.999 231.999H11.9999L110.999 330.998V231.999Z" fill="#273176"/>
</g>
<path d="M319.928 167.115C332.92 179.839 335.096 199.526 332.36 216.767C332.287 217.157 331.678 217.051 331.678 216.678C331.678 212.753 331.799 208.869 331.783 204.986L331.588 204.466C328.194 202.028 325.092 199.217 323.152 195.398C320.975 191.124 320.123 186.314 318.466 181.854C318.312 181.431 318.767 181.553 319.067 181.773C326.968 187.606 329.485 193.879 331.751 202.264C331.704 197.878 331.245 193.506 330.378 189.207C328.673 181.253 325.295 173.363 319.579 167.456C319.392 167.237 319.725 166.888 319.928 167.115Z" fill="#263238"/>
<path d="M317.492 168.602C315.259 168.675 313.854 172.25 312.116 173.29C311.934 173.433 311.724 173.537 311.5 173.595C311.276 173.653 311.042 173.664 310.813 173.628C310.585 173.591 310.366 173.507 310.171 173.382C309.976 173.257 309.809 173.093 309.68 172.9C307.959 170.462 310.322 167.521 312.547 165.856C310.923 166.514 309.64 167.659 307.918 167.992C307.699 168.062 307.467 168.084 307.238 168.056C307.009 168.029 306.788 167.954 306.591 167.834C306.393 167.715 306.224 167.555 306.093 167.366C305.962 167.176 305.873 166.96 305.832 166.733C305.076 163.483 309.193 161.988 312.019 161.923C310.647 160.964 306.725 158.381 308.812 157.105C310.898 155.829 315.527 159.542 317.029 160.745C319.238 162.541 321.901 165.222 321.974 168.057C322.088 171.299 319.23 169.284 317.492 168.602Z" fill="#F02C5E"/>
<path opacity="0.1" d="M317.492 168.602C315.259 168.675 313.854 172.25 312.116 173.29C311.934 173.433 311.724 173.537 311.5 173.595C311.276 173.653 311.042 173.664 310.813 173.628C310.585 173.591 310.366 173.507 310.171 173.382C309.976 173.257 309.809 173.093 309.68 172.9C307.959 170.462 310.322 167.521 312.547 165.856C310.923 166.514 309.64 167.659 307.918 167.992C307.699 168.062 307.467 168.084 307.238 168.056C307.009 168.029 306.788 167.954 306.591 167.834C306.393 167.715 306.224 167.555 306.093 167.366C305.962 167.176 305.873 166.96 305.832 166.733C305.076 163.483 309.193 161.988 312.019 161.923C310.647 160.964 306.725 158.381 308.812 157.105C310.898 155.829 315.527 159.542 317.029 160.745C319.238 162.541 321.901 165.222 321.974 168.057C322.088 171.299 319.23 169.284 317.492 168.602Z" fill="black"/>
<path d="M318.158 169.147C315.299 167.847 309.81 169.724 309.339 168.643C308.397 166.433 312.782 164.93 315.153 164.638C312.969 164.044 308.795 163.102 308.917 160.997C309.08 158.43 315.324 160.64 318.491 163.061C322.478 166.124 322.453 169.074 321.795 169.667C320.886 170.471 318.629 169.366 318.158 169.147Z" fill="#F02C5E"/>
<path d="M349.525 165.856C336.062 178.043 333.139 197.665 335.218 214.996C335.275 215.386 335.884 215.305 335.9 214.939C336.046 211.015 336.079 207.123 336.233 203.247C336.314 203.076 336.379 202.914 336.452 202.735C339.936 200.403 343.159 197.738 345.23 193.993C347.56 189.808 348.6 185.055 350.427 180.643C350.597 180.221 350.134 180.326 349.826 180.538C341.706 186.063 338.961 192.238 336.371 200.525C336.586 196.142 337.214 191.79 338.247 187.525C340.252 179.636 343.931 171.885 349.858 166.205C350.077 165.994 349.761 165.636 349.525 165.856Z" fill="#263238"/>
<path d="M351.913 167.432C354.137 167.595 355.404 171.218 357.101 172.307C357.278 172.463 357.486 172.58 357.712 172.651C357.937 172.721 358.174 172.743 358.409 172.716C358.643 172.688 358.869 172.611 359.072 172.491C359.275 172.37 359.45 172.208 359.586 172.015C361.397 169.675 359.147 166.612 356.988 164.865C358.555 165.58 359.83 166.782 361.527 167.172C361.744 167.252 361.975 167.284 362.206 167.267C362.436 167.25 362.66 167.184 362.863 167.073C363.066 166.962 363.243 166.81 363.382 166.625C363.522 166.44 363.62 166.228 363.67 166.002C364.547 162.752 360.487 161.127 357.67 160.948C359.074 160.055 363.094 157.609 361.056 156.26C359.018 154.912 354.251 158.43 352.7 159.592C350.427 161.298 347.69 163.873 347.487 166.677C347.235 169.959 350.167 168.05 351.913 167.432Z" fill="#F02C5E"/>
<path opacity="0.1" d="M351.913 167.432C354.137 167.595 355.404 171.218 357.101 172.307C357.278 172.463 357.486 172.58 357.712 172.651C357.937 172.721 358.174 172.743 358.409 172.716C358.643 172.688 358.869 172.611 359.072 172.491C359.275 172.37 359.45 172.208 359.586 172.015C361.397 169.675 359.147 166.612 356.988 164.865C358.555 165.58 359.83 166.782 361.527 167.172C361.744 167.252 361.975 167.284 362.206 167.267C362.436 167.25 362.66 167.184 362.863 167.073C363.066 166.962 363.243 166.81 363.382 166.625C363.522 166.44 363.62 166.228 363.67 166.002C364.547 162.752 360.487 161.127 357.67 160.948C359.074 160.055 363.094 157.609 361.056 156.26C359.018 154.912 354.251 158.43 352.7 159.592C350.427 161.298 347.69 163.873 347.487 166.677C347.235 169.959 350.167 168.05 351.913 167.432Z" fill="black"/>
<path d="M351.247 167.96C354.145 166.766 359.561 168.846 360.065 167.782C361.096 165.62 356.776 163.939 354.422 163.557C356.622 163.053 360.828 162.273 360.779 160.16C360.723 157.585 354.389 159.559 351.141 161.867C347.04 164.767 346.951 167.717 347.593 168.367C348.461 169.179 350.784 168.188 351.247 167.96Z" fill="#F02C5E"/>
<path d="M335.762 198.129C334.854 204.665 333.456 211.124 331.58 217.45C331.555 217.575 331.482 217.685 331.376 217.756C331.27 217.827 331.141 217.853 331.016 217.828C330.891 217.803 330.781 217.73 330.71 217.624C330.639 217.518 330.613 217.388 330.638 217.263C331.523 211.308 333.139 205.466 334.024 199.51C334.984 193.486 335.33 187.38 335.056 181.286C334.487 171.251 331.767 160.575 325.222 152.726C325.076 152.539 325.385 152.279 325.531 152.45C338.628 167.733 336.55 186.469 336.533 188.151C338.393 181.822 340.301 174.574 347.317 168.131C347.617 167.847 347.853 167.985 347.804 168.456C346.553 180.189 343.289 186.331 336.493 192.588C336.298 194.448 336.054 196.301 335.762 198.129Z" fill="#263238"/>
<path d="M325.1 154.481C322.745 153.433 319.497 156.439 317.167 156.642C315.933 156.756 315.015 156.269 314.804 155.017C314.228 151.645 318.174 149.752 321.3 149.151C319.319 149.029 317.37 149.557 315.421 149.029C315.157 148.994 314.904 148.902 314.679 148.76C314.454 148.618 314.262 148.43 314.116 148.207C313.971 147.984 313.875 147.732 313.835 147.469C313.795 147.206 313.813 146.937 313.887 146.681C314.755 142.887 319.757 143.431 322.729 144.796C321.787 143.122 319.018 138.45 321.82 138.182C324.621 137.914 327.569 144.081 328.519 146.104C329.907 149.078 331.296 153.189 329.988 156.147C328.494 159.592 326.546 156.065 325.1 154.481Z" fill="#F02C5E"/>
<path opacity="0.1" d="M325.1 154.481C322.745 153.433 319.497 156.439 317.167 156.642C315.933 156.756 315.015 156.269 314.804 155.017C314.228 151.645 318.174 149.752 321.3 149.151C319.319 149.029 317.37 149.557 315.421 149.029C315.157 148.994 314.904 148.902 314.679 148.76C314.454 148.618 314.262 148.43 314.116 148.207C313.971 147.984 313.875 147.732 313.835 147.469C313.795 147.206 313.813 146.937 313.887 146.681C314.755 142.887 319.757 143.431 322.729 144.796C321.787 143.122 319.018 138.45 321.82 138.182C324.621 137.914 327.569 144.081 328.519 146.104C329.907 149.078 331.296 153.189 329.988 156.147C328.494 159.592 326.546 156.065 325.1 154.481Z" fill="black"/>
<path d="M325.498 155.383C323.184 152.596 316.566 151.767 316.615 150.41C316.737 147.648 322.047 148.289 324.654 149.183C322.689 147.469 318.824 144.389 320.017 142.269C321.471 139.685 326.846 145.121 328.909 149.24C331.507 154.416 329.997 157.463 329.014 157.747C327.666 158.129 325.88 155.838 325.498 155.383Z" fill="#F02C5E"/>
<path d="M344.377 201.663L350.159 245.831H314.999C315.722 241.915 322.266 201.606 322.266 201.606L344.377 201.663Z" fill="#273176"/>
<path d="M29.8083 245.765L73.1042 245.57L116.4 245.497L203 245.367L289.592 245.497L332.895 245.57L376.191 245.765L332.895 245.968L289.592 246.042L203 246.172L116.4 246.042L73.1042 245.968L29.8083 245.765Z" fill="#263238"/>
<path d="M111.057 182.683C115.585 186.465 120.507 189.747 125.738 192.473C118.503 179.262 122.376 151.101 123.034 155.22C126.16 174.907 137.934 197.17 143.058 198.648C143.087 198.644 143.118 198.644 143.147 198.648C157.008 201.435 170.041 199.168 181.157 194.821C181.163 194.8 181.163 194.778 181.157 194.756C171.64 179.693 174.726 150.995 175.294 152.807C181.482 172.25 196.885 184.576 199.752 184.787C211.12 176.776 217.502 168.366 216.081 167.343C205.761 159.86 198.022 142.155 191.274 123.581C184.6 105.26 182.099 78.5771 171.884 61.8721C162.53 46.5727 141.458 42.0471 128.702 48.3927C95.2392 65.0002 104.748 177.434 111.057 182.683Z" fill="#263238"/>
<path d="M130.967 47.4014C128.186 48.3695 125.634 49.9019 123.473 51.9026C121.357 53.8003 119.424 55.8922 117.699 58.1508C114.45 62.6458 111.726 67.4982 109.579 72.6132C105.154 82.6964 102.742 102.993 101.508 113.734C100.465 124.515 100.465 135.372 101.508 146.153C101.719 148.85 102.117 151.531 102.417 154.221L103.603 162.265L105.146 170.26L106.94 178.206L105.682 170.195L104.618 162.159L103.717 154.123C103.514 151.434 103.213 148.761 103.091 146.071C102.298 135.365 102.447 124.609 103.538 113.929C104.577 103.269 107.021 83.1514 111.016 73.0926C112.976 68.0011 115.498 63.1447 118.536 58.6139C120.114 56.3189 121.906 54.178 123.887 52.2195C124.901 51.2337 125.987 50.3239 127.135 49.4976C128.305 48.6181 129.596 47.9121 130.967 47.4014V47.4014Z" fill="#263238"/>
<path d="M217.616 164.532C214.65 160.67 211.889 156.656 209.342 152.507C206.751 148.444 204.332 144.252 202.147 139.994C199.963 135.737 197.917 131.43 196.187 126.994C194.458 122.558 192.882 118.097 191.218 113.645C187.791 104.764 184.519 86.3041 180.508 77.586C178.478 73.231 176.358 68.9085 173.914 64.716C172.676 62.6076 171.321 60.5704 169.854 58.6141C168.412 56.5424 166.561 54.7891 164.414 53.4629C166.408 54.9257 168.101 56.7603 169.399 58.866C170.724 60.8715 171.936 62.9493 173.029 65.0898C175.27 69.331 177.211 73.686 179.054 78.0898C182.749 86.8648 186.021 105.292 189.302 114.205C191.023 118.65 192.639 123.094 194.458 127.539C196.281 132 198.382 136.342 200.751 140.539C205.487 149.124 211.142 157.169 217.616 164.532V164.532Z" fill="#263238"/>
<path d="M137.163 157.487C145.9 177.125 180.085 240.362 201.181 244.165C214.985 246.651 270.323 239.29 279.409 225.794C283.372 219.92 274.894 180.294 267.554 182.106C260.214 183.918 215.919 191.441 210.397 190.052C204.876 188.663 162.221 142.927 146.501 131.78C119.364 112.531 132.462 146.916 137.163 157.487Z" fill="#EB9481"/>
<path d="M250.656 179.839L253.985 239.769C253.985 239.769 210.292 249.381 191.218 242.791C168.068 234.788 134.183 163.028 129.506 151.231C121.889 131.869 124 120.153 134.792 123.013C138.982 124.093 144.536 127.4 151.259 133.356C158.332 139.563 198.956 179.839 211.778 187.444C218.98 191.701 250.656 179.839 250.656 179.839Z" fill="#F02C5E"/>
<path d="M227.23 229.556C226.055 229.977 224.945 230.563 223.933 231.295C225.175 231.197 226.397 230.923 227.563 230.482C228.739 230.067 229.849 229.484 230.86 228.752C229.617 228.842 228.394 229.113 227.23 229.556V229.556ZM194.311 182.48C193.138 182.895 192.03 183.478 191.023 184.21C193.514 183.977 195.9 183.091 197.941 181.643C196.697 181.745 195.475 182.027 194.311 182.48ZM161.101 154.042C159.925 154.464 158.815 155.049 157.804 155.781C160.297 155.546 162.685 154.661 164.73 153.214C163.488 153.313 162.265 153.59 161.101 154.034V154.042ZM185.241 218.474C184.066 218.89 182.955 219.473 181.945 220.204C184.436 219.971 186.822 219.085 188.863 217.637C187.622 217.735 186.402 218.015 185.241 218.465V218.474ZM223.876 195.374C222.7 195.794 221.59 196.379 220.58 197.113C221.822 197.015 223.044 196.741 224.209 196.3C225.385 195.885 226.496 195.302 227.506 194.57C226.264 194.658 225.041 194.926 223.876 195.366V195.374ZM165.859 184.893C164.7 185.318 163.607 185.903 162.611 186.632C163.853 186.534 165.075 186.26 166.241 185.819C167.401 185.398 168.494 184.812 169.489 184.08C168.247 184.176 167.025 184.447 165.859 184.885V184.893ZM252.743 217.986C252.605 217.434 252.426 216.889 252.24 216.361C251.819 215.185 251.234 214.075 250.502 213.062C250.596 214.306 250.87 215.529 251.314 216.694C251.688 217.743 252.19 218.742 252.808 219.668L252.743 217.986ZM206.841 221.325C206.423 220.15 205.84 219.039 205.111 218.027C205.209 219.27 205.482 220.492 205.923 221.659C206.341 222.836 206.926 223.947 207.661 224.957C207.576 223.712 207.311 222.486 206.873 221.317L206.841 221.325ZM177.828 170C177.407 168.826 176.822 167.719 176.09 166.709C176.188 167.952 176.462 169.175 176.902 170.341C177.319 171.516 177.905 172.625 178.64 173.632C178.546 172.388 178.272 171.165 177.828 170V170ZM145.843 138.491C145.427 137.315 144.844 136.204 144.114 135.192C144.347 137.685 145.232 140.073 146.679 142.115C146.565 140.871 146.27 139.65 145.803 138.491H145.843ZM191.104 236.438C189.988 235.89 188.798 235.507 187.572 235.3C188.522 236.106 189.583 236.771 190.722 237.275C191.849 237.81 193.047 238.182 194.279 238.38C193.318 237.585 192.249 236.931 191.104 236.438V236.438ZM230.949 211.779C229.822 211.244 228.624 210.875 227.392 210.682C229.328 212.271 231.641 213.331 234.108 213.761C233.154 212.945 232.09 212.267 230.949 211.746V211.779ZM217.827 244.693C216.701 244.154 215.503 243.782 214.27 243.588C214.872 244.115 215.531 244.573 216.235 244.953L218.152 244.847L217.827 244.693ZM185.607 197.934C184.481 197.395 183.283 197.022 182.05 196.829C183.982 198.419 186.293 199.48 188.757 199.908C187.809 199.091 186.748 198.415 185.607 197.901V197.934ZM136.887 155.627C135.761 155.088 134.563 154.715 133.33 154.522C134.28 155.328 135.341 155.992 136.481 156.496C137.608 157.032 138.805 157.404 140.037 157.601C139.093 156.787 138.038 156.111 136.903 155.594L136.887 155.627ZM167.093 207.822C166.555 208.948 166.185 210.147 165.997 211.38C166.801 210.426 167.465 209.362 167.97 208.22C168.502 207.091 168.873 205.893 169.074 204.661C168.276 205.607 167.615 206.66 167.109 207.789L167.093 207.822ZM150.853 174.314C150.315 175.44 149.945 176.639 149.757 177.873C150.561 176.918 151.225 175.854 151.73 174.712C152.262 173.583 152.633 172.385 152.834 171.154C152.042 172.102 151.383 173.154 150.878 174.282L150.853 174.314ZM202.537 201.224C202.013 202.343 201.65 203.53 201.457 204.75C202.268 203.802 202.935 202.74 203.438 201.598C203.97 200.469 204.341 199.271 204.543 198.039C203.733 198.989 203.066 200.051 202.561 201.192L202.537 201.224ZM125.632 138.353C125.714 138.8 125.803 139.247 125.909 139.71C126.297 138.8 126.57 137.844 126.721 136.866C126.322 137.318 125.966 137.804 125.657 138.32L125.632 138.353Z" fill="white"/>
<path d="M243.056 238.875C242.293 230.035 240.514 193.741 240.66 185.868C240.66 185.323 241.018 185.201 241.083 185.77C243.99 212.209 243.096 230.125 243.397 238.835C243.405 239.03 243.072 239.078 243.056 238.875Z" fill="#263238"/>
<path opacity="0.1" d="M129.538 151.222C134.167 163.02 168.068 234.788 191.25 242.783C196.934 244.757 204.892 245.277 213.174 245.058L133.395 122.687C131.097 122.338 129.254 122.728 127.914 123.8C123.611 127.205 124.025 137.231 129.538 151.222Z" fill="black"/>
<path d="M50.0758 245.692L170.041 245.375L163.407 204.1C163.407 204.1 172.891 192.579 171.096 180.083C169.131 166.392 144.455 131.682 142.384 129.708C134.028 121.859 125.186 120.453 116.692 123.281C77.4483 148.013 50.0758 245.692 50.0758 245.692Z" fill="#F02C5E"/>
<path d="M59.4463 221.927C58.7518 222.189 58.0763 222.498 57.4244 222.853L57.1808 223.544C58.066 223.381 58.9354 223.142 59.7792 222.829C60.9567 222.412 62.0673 221.827 63.0759 221.09C61.832 221.192 60.6094 221.474 59.4463 221.927V221.927ZM102.791 143.114C101.632 143.539 100.539 144.124 99.5428 144.853C100.782 144.755 102.002 144.481 103.164 144.04C104.342 143.624 105.452 143.039 106.461 142.302C105.206 142.391 103.97 142.659 102.791 143.098V143.114ZM159.395 154.782C158.826 155.065 158.283 155.396 157.771 155.773C158.444 155.732 159.11 155.623 159.761 155.448C159.663 155.229 159.525 155.009 159.395 154.782ZM128.491 172.746C127.316 173.164 126.206 173.747 125.194 174.477C127.687 174.241 130.076 173.356 132.12 171.909C130.876 172.011 129.654 172.293 128.491 172.746ZM113.063 219.749C111.887 220.166 110.777 220.749 109.766 221.48C111.008 221.382 112.23 221.108 113.396 220.667C114.556 220.246 115.649 219.66 116.644 218.929C115.425 219.031 114.227 219.307 113.087 219.749H113.063ZM165.843 184.885C164.684 185.31 163.591 185.895 162.595 186.624C163.837 186.525 165.059 186.252 166.224 185.811C167.384 185.389 168.478 184.804 169.472 184.072C168.236 184.172 167.019 184.446 165.859 184.885H165.843ZM87.1274 186.981C85.969 187.403 84.8757 187.985 83.8794 188.712C86.3706 188.478 88.7566 187.593 90.7976 186.144C89.5454 186.244 88.3145 186.526 87.1436 186.981H87.1274ZM146.298 218.465C145.122 218.882 144.012 219.465 143.001 220.196C144.243 220.098 145.465 219.824 146.631 219.384C147.804 218.964 148.912 218.378 149.919 217.645C148.684 217.742 147.47 218.019 146.314 218.465H146.298ZM114.492 125.589L114.248 124.987C113.98 125.174 113.72 125.369 113.436 125.564C113.485 125.686 113.525 125.8 113.566 125.922C113.987 127.088 114.572 128.188 115.304 129.188C115.203 127.956 114.929 126.744 114.492 125.589V125.589ZM84.5452 220.927C84.1272 219.752 83.5449 218.641 82.8156 217.629C83.0507 220.124 83.9354 222.513 85.3816 224.559C85.2804 223.314 84.9986 222.091 84.5452 220.927V220.927ZM127.679 202.134C127.257 200.975 126.675 199.881 125.949 198.884C126.183 201.377 127.067 203.764 128.515 205.807C128.417 204.548 128.135 203.311 127.679 202.134V202.134ZM112.421 161.623C112 160.449 111.415 159.342 110.683 158.332C110.931 160.822 111.814 163.206 113.249 165.255C113.146 164.011 112.867 162.788 112.421 161.623V161.623ZM165.429 230.531C165.016 229.353 164.433 228.242 163.699 227.232C163.797 228.475 164.07 229.698 164.511 230.864C164.93 232.038 165.515 233.147 166.249 234.155C166.153 232.913 165.876 231.693 165.429 230.531V230.531ZM145.802 138.491C145.386 137.315 144.804 136.204 144.073 135.192C144.306 137.685 145.191 140.073 146.639 142.115C146.538 140.873 146.256 139.652 145.802 138.491V138.491ZM99.8027 205.327C98.6759 204.793 97.4781 204.423 96.2461 204.23C98.1816 205.819 100.495 206.88 102.961 207.31C102.005 206.506 100.942 205.838 99.8027 205.327V205.327ZM142.408 244.498C142.822 244.858 143.265 245.185 143.732 245.473H145.664C144.63 244.997 143.534 244.669 142.408 244.498ZM72.0241 237.543C70.8971 237.007 69.6995 236.635 68.4676 236.438C69.4181 237.25 70.4823 237.917 71.6263 238.42C72.7515 238.953 73.946 239.325 75.1747 239.525C74.227 238.714 73.1655 238.046 72.0241 237.543V237.543ZM144.69 195.382C143.566 194.846 142.371 194.474 141.142 194.277C142.089 195.089 143.151 195.757 144.292 196.26C145.42 196.793 146.617 197.162 147.849 197.357C146.895 196.552 145.831 195.887 144.69 195.382V195.382ZM136.903 155.57C135.777 155.031 134.579 154.659 133.346 154.465C134.297 155.271 135.358 155.936 136.497 156.439C137.624 156.975 138.822 157.347 140.054 157.544C139.101 156.748 138.04 156.092 136.903 155.594V155.57ZM90.1805 166.587C89.6418 167.714 89.2698 168.912 89.0761 170.146C89.8821 169.193 90.5467 168.128 91.0493 166.985C91.5891 165.862 91.9612 164.666 92.1536 163.435C91.3463 164.393 90.6817 165.463 90.1805 166.612V166.587ZM127.825 231.904C127.292 233.032 126.923 234.231 126.729 235.463C127.529 234.532 128.193 233.493 128.702 232.375C129.237 231.248 129.609 230.049 129.806 228.817C129.006 229.758 128.339 230.805 127.825 231.929V231.904ZM150.877 174.257C150.339 175.383 149.97 176.582 149.781 177.816C150.585 176.861 151.25 175.797 151.754 174.655C152.286 173.526 152.658 172.328 152.859 171.097C152.053 172.061 151.386 173.133 150.877 174.282V174.257ZM99.3561 235.26C98.8158 236.405 98.4438 237.623 98.2517 238.875C99.0626 237.927 99.7302 236.865 100.233 235.723C100.765 234.595 101.135 233.397 101.329 232.164C100.528 233.106 99.8636 234.156 99.3561 235.284V235.26ZM73.3071 205.409C72.771 206.536 72.3991 207.734 72.2028 208.967C73.7991 207.036 74.8603 204.719 75.2803 202.248C74.4762 203.203 73.8118 204.267 73.3071 205.409V205.409ZM109.993 186.063C109.453 187.186 109.081 188.382 108.889 189.614C109.694 188.663 110.359 187.601 110.862 186.461C111.397 185.333 111.769 184.135 111.966 182.902C111.162 183.857 110.498 184.921 109.993 186.063V186.063ZM124.764 139.97C124.224 141.093 123.852 142.289 123.659 143.52C124.465 142.57 125.129 141.508 125.632 140.368C126.168 139.24 126.539 138.042 126.737 136.809C125.931 137.771 125.266 138.844 124.764 139.994V139.97Z" fill="white"/>
<path d="M155.401 146.429C157.723 150.297 160.273 154.026 162.709 157.804C161.726 155.107 160.768 152.409 159.696 149.752C159.693 149.742 159.693 149.731 159.697 149.72C159.701 149.71 159.708 149.702 159.717 149.696C159.727 149.69 159.738 149.688 159.749 149.689C159.759 149.691 159.77 149.696 159.777 149.704C161.482 152.909 162.872 156.272 163.927 159.746C165.748 162.613 167.375 165.599 168.799 168.684C170.545 172.385 171.644 176.359 172.047 180.432C172.308 184.536 171.728 188.651 170.341 192.522C168.708 196.966 166.675 201.252 164.268 205.327C163.959 205.872 163.204 205.368 163.456 204.824C166.858 197.56 170.617 189.922 170.276 181.692C169.935 173.461 166.151 166.051 162.441 158.99C160.273 154.687 157.832 150.526 155.133 146.535C155.019 146.421 155.295 146.25 155.401 146.429Z" fill="#263238"/>
<path d="M193.305 236.844L190.869 250.486H266.482C268.57 250.419 270.574 249.648 272.168 248.299C273.763 246.949 274.855 245.1 275.268 243.051L276.356 236.844H193.305Z" fill="#DBDBDB"/>
<path d="M184.787 243.051L185.883 236.844H200.734L199.638 243.051C199.23 245.093 198.146 246.938 196.56 248.287C194.975 249.636 192.981 250.411 190.901 250.486C189.978 250.51 189.061 250.327 188.218 249.95C187.375 249.573 186.627 249.012 186.029 248.308C185.451 247.576 185.04 246.726 184.825 245.818C184.61 244.909 184.597 243.965 184.787 243.051V243.051Z" fill="#EBEBEB"/>
<path d="M217.876 139.555L198.331 250.486H266.539C268.616 250.407 270.607 249.63 272.19 248.282C273.773 246.933 274.857 245.091 275.268 243.052L294.813 132.121H226.605C224.528 132.16 222.533 132.932 220.969 134.299C219.365 135.643 218.272 137.499 217.876 139.555Z" fill="#DBDBDB"/>
<path d="M226.613 132.121L222.667 154.53H305.702L308.341 139.555C309.063 135.452 306.319 132.121 302.226 132.121H226.613Z" fill="#EBEBEB"/>
<path d="M217.876 139.555L215.237 154.53H230.088L232.727 139.555C233.45 135.452 230.713 132.121 226.613 132.121C224.537 132.16 222.541 132.932 220.978 134.299C219.37 135.642 218.275 137.498 217.876 139.555Z" fill="#DBDBDB"/>
<path d="M284.768 175.021C287.545 182.942 295.552 193.253 295.641 199.493C295.715 201.029 295.292 202.547 294.437 203.825C293.582 205.102 292.338 206.07 290.891 206.586C290.891 206.586 296.705 210.299 295.852 215.971C295.414 218.887 290.363 220.748 290.363 220.748C290.363 220.748 294.894 223.925 293.822 228.922C292.97 232.903 288.041 234.17 288.041 234.17C288.041 234.17 290.964 239.249 288.796 243.027C284.395 250.68 249.666 246.992 245.663 233.618C243.795 227.386 252.232 228.743 252.232 228.743C252.232 228.743 240.571 223.868 241.156 216.669C241.741 209.471 252.581 211.916 252.581 211.916C252.581 211.916 241.326 207.082 242.674 199.688C244.087 192.002 254.521 196.292 254.521 196.292C254.521 196.292 247.351 190.239 249.649 184.819C253.49 175.882 266.88 189.061 274.708 188.069L280.254 175.882L284.768 175.021Z" fill="#EB9481"/>
<path d="M290.566 186.712C288.593 178.985 298.767 170.787 297.939 163.15C296.826 152.79 284.378 161.525 280.286 175.947L279.076 187.687L290.566 186.712Z" fill="#EB9481"/>
<path d="M287.294 234.487C287.317 234.487 287.34 234.497 287.357 234.513C287.374 234.53 287.383 234.553 287.383 234.577C287.383 234.6 287.374 234.623 287.357 234.64C287.34 234.657 287.317 234.666 287.294 234.666C275.568 236.242 262.219 234.373 251.744 228.727C251.395 228.548 251.549 227.914 251.972 228.036C263.9 231.79 274.756 234.162 287.294 234.487Z" fill="#263238"/>
<path d="M290.525 220.838C290.664 220.838 290.655 221.065 290.525 221.082C278.435 222.642 263.453 220.123 252.142 212.193C251.761 211.925 251.679 211.291 252.142 211.567C260.059 216.272 279.239 220.602 290.525 220.838Z" fill="#263238"/>
<path d="M253.88 195.463C265.012 202.646 277.33 205.53 290.42 206.668C290.59 206.668 290.55 206.928 290.42 206.952C283.875 208.138 275.617 206.538 269.308 204.75C263.408 203.206 258.018 200.138 253.677 195.853C253.449 195.683 253.636 195.317 253.88 195.463Z" fill="#263238"/>
<path d="M122.709 122.728C122.872 124.84 130.553 139.555 139.924 140.554C142.977 140.871 145.462 124.304 145.462 124.304L145.933 123.126L152.429 106.559L134.28 90.5203L131.633 88.3672C131.633 88.3672 130.164 93.0147 128.385 98.8159C128.304 99.0841 128.215 99.3603 128.134 99.6284C128.052 99.8966 127.914 100.262 127.825 100.571C127.549 101.432 127.273 102.318 127.013 103.203C126.81 103.878 126.615 104.528 126.428 105.243C126.242 105.958 126.047 106.657 125.844 107.363C123.968 114.424 122.653 121.875 122.709 122.728Z" fill="#EB9481"/>
<path d="M128.361 98.7915C129.351 103.877 131.436 108.686 134.47 112.884C137.505 117.082 141.416 120.568 145.933 123.102L152.429 106.535L134.28 90.4959L131.633 88.3428C131.633 88.3428 130.139 92.9903 128.361 98.7915Z" fill="#263238"/>
<path d="M181.303 86.8074C177.194 117.747 158.21 118.779 151.543 117.886C145.494 117.073 124.983 113.539 125.876 82.3386C126.769 51.1386 142.449 43.2655 156.391 44.3868C170.333 45.508 185.42 55.8592 181.303 86.8074Z" fill="#EB9481"/>
<path d="M176.862 83.4841C176.186 83.2324 175.525 82.9449 174.88 82.6228C174.143 82.4206 173.494 81.9773 173.037 81.3634C172.929 81.1436 172.897 80.8937 172.947 80.6536C172.997 80.4135 173.126 80.1972 173.313 80.0391C173.728 79.7775 174.204 79.6314 174.694 79.6157C175.183 79.6 175.668 79.7153 176.098 79.9497C177.043 80.2919 177.827 80.9722 178.299 81.8591C178.395 82.068 178.428 82.3003 178.394 82.5277C178.36 82.7551 178.261 82.9678 178.109 83.1399C177.957 83.3121 177.758 83.4362 177.536 83.4973C177.315 83.5584 177.081 83.5538 176.862 83.4841V83.4841Z" fill="#263238"/>
<path d="M155.953 78.1706C156.669 78.2072 157.388 78.2072 158.104 78.1706C158.866 78.27 159.639 78.1158 160.305 77.7319C160.489 77.5711 160.614 77.3543 160.663 77.115C160.711 76.8757 160.68 76.6271 160.573 76.4075C160.293 76.0034 159.911 75.6812 159.466 75.4741C159.021 75.267 158.528 75.1825 158.039 75.2294C157.038 75.1748 156.051 75.4932 155.27 76.1231C155.104 76.2782 154.986 76.4778 154.93 76.6982C154.874 76.9186 154.882 77.1505 154.954 77.3662C155.026 77.582 155.158 77.7725 155.335 77.9151C155.512 78.0578 155.727 78.1464 155.953 78.1706V78.1706Z" fill="#263238"/>
<path d="M159.249 84.9791C159.249 84.8897 159.071 85.0441 159.054 85.1334C158.746 87.2378 158.039 89.5941 156.018 89.9434C155.961 89.9434 155.944 90.0653 156.018 90.0653C158.38 90.1872 159.29 87.0184 159.249 84.9791Z" fill="#263238"/>
<path d="M157.78 82.4522C154.467 81.591 152.981 88.2941 156.058 89.0903C159.136 89.8866 160.557 83.1753 157.78 82.4522Z" fill="#263238"/>
<path d="M156.383 82.5178C155.717 82.7697 154.994 83.3303 154.28 83.2247C153.468 83.1272 152.981 82.2822 152.599 81.494C152.558 81.4128 152.485 81.4534 152.469 81.5428C152.161 82.8265 152.364 84.2484 153.703 84.744C154.913 85.199 156.066 84.2647 156.675 83.0459C156.789 82.8184 156.659 82.4203 156.383 82.5178Z" fill="#263238"/>
<path d="M171.632 86.938C171.632 86.8648 171.771 87.0761 171.746 87.1655C171.202 89.2211 170.934 91.6667 172.647 92.7798C172.704 92.8205 172.647 92.918 172.607 92.8936C170.39 92.0242 170.788 88.7823 171.632 86.938Z" fill="#263238"/>
<path d="M173.971 85.1743C177.365 85.6862 176.09 92.43 172.956 91.9587C169.822 91.4875 171.137 84.7518 173.971 85.1743Z" fill="#263238"/>
<path d="M175.294 85.8894C175.757 86.3444 176.163 87.0919 176.797 87.2544C177.43 87.4169 178.201 86.8157 178.802 86.2063C178.867 86.1413 178.908 86.2063 178.9 86.2957C178.689 87.5957 178.007 88.855 176.724 88.8713C175.441 88.8875 174.937 87.62 174.872 86.2794C174.856 86.0275 175.108 85.7025 175.294 85.8894Z" fill="#263238"/>
<path d="M155.944 102.871C156.31 103.48 156.618 104.276 157.349 104.496C158.115 104.685 158.911 104.713 159.688 104.577C159.705 104.571 159.723 104.571 159.74 104.578C159.757 104.584 159.77 104.597 159.778 104.613C159.786 104.629 159.788 104.648 159.784 104.665C159.779 104.682 159.768 104.697 159.753 104.707C159.349 105.03 158.867 105.238 158.355 105.309C157.843 105.381 157.322 105.313 156.846 105.113C156.456 104.894 156.141 104.564 155.942 104.164C155.742 103.764 155.666 103.314 155.725 102.871C155.725 102.781 155.904 102.781 155.944 102.871Z" fill="#263238"/>
<path d="M166.208 97.1671C166.208 97.1671 165.989 100.36 165.68 101.831C165.68 101.969 165.282 101.953 164.779 101.88C164.771 101.886 164.761 101.889 164.751 101.889C164.74 101.889 164.73 101.886 164.722 101.88C163.417 101.844 162.148 101.451 161.051 100.744C159.954 100.036 159.072 99.0404 158.502 97.8658C158.486 97.8316 158.483 97.7927 158.494 97.7565C158.504 97.7202 158.528 97.6891 158.56 97.6691C158.592 97.649 158.63 97.6415 158.667 97.6478C158.705 97.6541 158.738 97.6739 158.762 97.7033C160.362 99.3757 162.463 100.482 164.746 100.856C164.933 100.474 164.933 95.3715 165.169 95.404C166.288 95.7391 167.356 96.2256 168.344 96.8502C168.993 90.204 168.571 83.5089 169.318 76.9033C169.318 76.8494 169.339 76.7978 169.377 76.7597C169.416 76.7216 169.467 76.7002 169.521 76.7002C169.575 76.7002 169.627 76.7216 169.665 76.7597C169.703 76.7978 169.724 76.8494 169.724 76.9033C170.658 83.8908 170.073 91.5283 169.578 98.4346C169.529 99.2715 166.744 97.5408 166.208 97.1671Z" fill="#263238"/>
<path d="M128.052 82.7369C135.198 84.1994 137.341 72.8975 137.341 72.8975C137.341 72.8975 145.6 73.71 148.75 60.7506C148.75 60.7506 151.113 69.4281 161.799 73.1819C164.064 73.9944 157.43 66.4138 157.43 66.4138C157.43 66.4138 165.136 76.7081 183.13 76.8788C184.397 76.8788 186.809 57.9556 174.409 49.0506C162.01 40.1456 147.613 41.3969 137.471 48.3519C137.471 48.3519 127.727 51.7806 124.78 61.0188C121.832 70.2569 125.275 82.1681 128.052 82.7369Z" fill="#263238"/>
<path d="M151.844 96.8498C149.978 96.3279 148.296 95.2926 146.989 93.8618C145.682 92.4309 144.803 90.6619 144.451 88.7558C144.099 86.8496 144.288 84.8829 144.998 83.0792C145.707 81.2754 146.908 79.7071 148.464 78.5523C150.02 77.3976 151.869 76.7029 153.8 76.5472C155.731 76.3914 157.666 76.7809 159.387 77.6713C161.108 78.5618 162.544 79.9174 163.533 81.5842C164.523 83.2509 165.024 85.1619 164.982 87.0998V87.0998C164.912 89.8375 163.763 92.4364 161.785 94.3298C159.808 96.2232 157.162 97.2575 154.426 97.2073C153.553 97.2 152.686 97.0798 151.844 96.8498V96.8498ZM157.049 78.2273C155.257 77.7308 153.355 77.8061 151.608 78.4426C149.861 79.0792 148.357 80.2453 147.304 81.7784C146.251 83.3115 145.702 85.1352 145.734 86.9951C145.766 88.8551 146.378 90.6587 147.483 92.1545C148.588 93.6502 150.133 94.7636 151.9 95.3393C153.668 95.915 155.571 95.9244 157.345 95.3662C159.118 94.808 160.674 93.71 161.794 92.2253C162.914 90.7406 163.543 88.9431 163.593 87.0836C163.635 85.0945 163.018 83.1474 161.839 81.5456C160.66 79.9438 158.984 78.7772 157.073 78.2273H157.049Z" fill="#EBEBEB"/>
<path d="M175.392 100.409C171.584 99.3443 169.212 94.4693 170.049 89.1312C170.394 86.5753 171.529 84.1915 173.297 82.3143C174.012 81.4657 174.933 80.816 175.972 80.4279C177.011 80.0398 178.133 79.9264 179.228 80.0988C180.324 80.2712 181.356 80.7234 182.226 81.4118C183.096 82.1003 183.774 83.0016 184.194 84.0287C185.315 86.3554 185.679 88.9756 185.233 91.52C184.348 97.1587 180.215 101.213 176.017 100.555C175.805 100.521 175.597 100.472 175.392 100.409V100.409ZM179.565 81.5749C179.398 81.5246 179.227 81.4866 179.054 81.4612C178.175 81.3657 177.286 81.4818 176.461 81.7998C175.636 82.1178 174.899 82.6285 174.312 83.2893C172.742 84.9575 171.729 87.0728 171.413 89.3425C170.65 94.2175 172.818 98.6456 176.285 99.19C179.752 99.7343 183.154 96.1918 183.926 91.3087C184.323 89.0507 184.008 86.7252 183.025 84.6543C182.692 83.9227 182.208 83.27 181.605 82.7392C181.001 82.2085 180.293 81.8116 179.525 81.5749H179.565Z" fill="#EBEBEB"/>
<path d="M164.479 88.246L163.764 87.0597C165.518 85.9954 169.375 84.8091 171.454 87.8722L170.309 88.6847C168.449 85.906 164.641 88.1485 164.479 88.246Z" fill="#EBEBEB"/>
<path d="M118.503 83.6875L117.391 82.875C117.772 82.355 121.207 77.7887 124.341 77.7725C127.265 77.7725 145.315 82.3631 146.087 82.5581L145.738 83.8987C140.565 82.5743 126.607 79.1456 124.35 79.1537C122.279 79.1943 119.429 82.4606 118.503 83.6875Z" fill="#EBEBEB"/>
<path d="M130.48 85.369C130.48 85.369 125.941 74.3759 121.102 75.7896C116.262 77.2034 118.195 92.1046 122.839 95.119C123.409 95.5465 124.059 95.8543 124.75 96.024C125.441 96.1937 126.16 96.2217 126.862 96.1063C127.565 95.9909 128.236 95.7346 128.837 95.3527C129.438 94.9707 129.956 94.4712 130.359 93.884L130.48 85.369Z" fill="#EB9481"/>
<path d="M121.8 80.0479C121.784 80.0452 121.767 80.0479 121.753 80.0557C121.739 80.0634 121.727 80.0757 121.721 80.0907C121.714 80.1056 121.713 80.1223 121.717 80.1381C121.721 80.1539 121.73 80.1679 121.743 80.1779C124.991 82.4123 126.112 86.1173 126.656 89.8223C125.892 88.2785 124.618 87.2385 122.596 88.0998C122.575 88.1121 122.559 88.1307 122.549 88.1529C122.54 88.1751 122.538 88.1997 122.543 88.2232C122.548 88.2467 122.561 88.2679 122.579 88.2837C122.598 88.2995 122.62 88.3091 122.644 88.311C123.314 88.2501 123.986 88.3987 124.568 88.7363C125.15 89.074 125.613 89.584 125.892 90.196C126.36 91.2178 126.711 92.2889 126.94 93.3891C127.037 93.7385 127.646 93.6979 127.606 93.3079C127.606 93.3079 127.606 93.251 127.606 93.2185C128.637 88.7091 126.526 81.5835 121.8 80.0479Z" fill="#263238"/>
<path d="M145.226 124.824L140.857 139.092L122.254 123.102L117.878 129.106C117.878 129.106 136.984 155.407 136.984 154.139L141.653 141.773L150.585 149.345L148.149 128.643L145.226 124.824Z" fill="#EBEBEB"/>
<path d="M149.928 139.043C149.416 135.639 148.994 132.194 148.304 128.814C148.304 128.7 148.084 128.66 148.068 128.814C147.662 132.178 149.692 145.186 149.952 148.314C149.579 147.981 141.735 141.684 141.67 141.814C140.598 143.805 137.163 152.815 136.944 153.628C133.923 149.451 121.207 133.047 117.716 129.155C117.707 129.142 117.696 129.131 117.683 129.123C117.671 129.114 117.656 129.108 117.641 129.105C117.626 129.102 117.611 129.102 117.595 129.105C117.58 129.108 117.566 129.114 117.553 129.123C117.54 129.131 117.529 129.142 117.521 129.155C117.512 129.168 117.506 129.182 117.503 129.197C117.5 129.212 117.5 129.228 117.503 129.243C117.506 129.258 117.512 129.272 117.521 129.285C120.257 133.738 136.733 155.407 136.928 155.334C138.777 151.064 140.403 146.7 141.8 142.261C143.156 143.658 151.146 150.849 151.129 150.337C150.93 146.554 150.529 142.784 149.928 139.043Z" fill="#263238"/>
<path d="M116.538 151.938C109.311 183.089 88.8408 217.937 75.8813 228.183C67.9887 234.415 42.7274 234.471 41.5987 218.116C40.47 201.76 90.067 150.5 97.3668 140.53C104.667 130.561 123.067 123.833 116.538 151.938Z" fill="#EB9481"/>
<path d="M116.538 151.938C109.311 183.089 88.8408 217.937 75.8813 228.183C67.9887 234.415 42.7274 234.471 41.5987 218.116C40.47 201.76 90.067 150.5 97.3668 140.53C104.667 130.561 123.067 123.833 116.538 151.938Z" fill="#F02C5E"/>
<path d="M59.4464 221.926C58.2878 222.351 57.1945 222.936 56.1984 223.665C57.4379 223.566 58.6572 223.293 59.8199 222.852C60.9974 222.436 62.108 221.85 63.1166 221.113C61.8602 221.204 60.6237 221.477 59.4464 221.926V221.926ZM102.791 143.113C101.632 143.538 100.539 144.123 99.5429 144.852C100.782 144.754 102.002 144.48 103.164 144.04C104.342 143.623 105.453 143.038 106.461 142.301C105.206 142.39 103.97 142.658 102.791 143.097V143.113ZM87.1437 186.988C85.9854 187.41 84.892 187.993 83.8957 188.719C86.387 188.485 88.7729 187.6 90.8139 186.151C89.5567 186.247 88.3202 186.526 87.1437 186.98V186.988ZM74.7769 173.062C74.3732 171.876 73.8017 170.754 73.0799 169.731C73.178 170.974 73.4514 172.196 73.8919 173.363C74.3097 174.54 74.8949 175.651 75.6295 176.661C75.5162 175.427 75.2292 174.216 74.7769 173.062V173.062ZM54.5906 204.059C54.1697 202.883 53.5847 201.772 52.8529 200.76C53.088 203.255 53.9727 205.645 55.4189 207.691C55.3156 206.447 55.0368 205.224 54.5906 204.059ZM82.8239 217.628C82.8924 218.613 83.0889 219.585 83.4085 220.52L84.05 219.708C83.7187 218.971 83.3076 218.274 82.8239 217.628V217.628ZM112.429 161.622C112.008 160.449 111.423 159.341 110.692 158.331C110.786 159.572 111.059 160.793 111.504 161.955C111.859 162.944 112.325 163.89 112.892 164.775C112.957 164.563 113.03 164.36 113.095 164.149C112.942 163.289 112.716 162.444 112.421 161.622H112.429ZM66.324 187.687C65.1966 187.154 63.999 186.785 62.7675 186.59C63.7176 187.396 64.7787 188.061 65.918 188.565C67.0451 189.1 68.2426 189.472 69.4746 189.67C68.5216 188.865 67.4612 188.198 66.324 187.687V187.687ZM90.1806 166.562C89.6419 167.688 89.2699 168.887 89.0763 170.121C89.8823 169.168 90.5468 168.103 91.0494 166.96C91.5892 165.837 91.9613 164.641 92.1537 163.41C91.3444 164.375 90.6797 165.454 90.1806 166.611V166.562ZM73.3072 205.408C72.7711 206.535 72.3992 207.733 72.2029 208.966C73.7992 207.035 74.8604 204.718 75.2804 202.247C74.4763 203.202 73.8119 204.266 73.3072 205.408V205.408ZM42.1751 216.311C41.964 216.791 41.761 217.278 41.5905 217.782C41.5823 217.89 41.5823 217.999 41.5905 218.107C41.5905 218.44 41.6474 218.773 41.688 219.09C42.2084 218.339 42.6596 217.542 43.0359 216.71C43.5684 215.581 43.9402 214.383 44.1402 213.151C43.337 214.105 42.6753 215.169 42.1751 216.311V216.311Z" fill="white"/>
<path d="M54.0386 230.555C57.4417 231.106 60.9096 231.125 64.3185 230.612C67.657 230.069 70.8684 228.921 73.7946 227.223C79.982 223.665 84.1232 217.636 87.8016 211.705C91.8345 205.205 95.6239 198.548 99.1696 191.733C102.702 184.933 105.942 177.978 109.068 170.982C110.651 167.456 112.089 163.881 113.591 160.322C115.093 156.763 116.514 153.245 117.821 149.646C118.154 148.736 118.463 147.826 118.779 146.916C118.785 146.899 118.797 146.884 118.813 146.876C118.829 146.868 118.847 146.866 118.865 146.871C118.882 146.877 118.896 146.889 118.905 146.905C118.913 146.921 118.915 146.939 118.909 146.957C117.74 150.678 116.628 154.44 115.369 158.128C115.207 158.608 115.028 159.087 114.857 159.567C116.165 156.78 117.505 154.009 118.917 151.271C118.999 151.108 119.226 151.271 119.161 151.417C117.911 154.261 116.611 157.105 115.28 159.875C114.619 161.257 113.956 162.632 113.29 164.003C112.657 165.709 111.999 167.423 111.325 169.122C108.418 176.402 105.187 183.527 101.63 190.498C98.0734 197.47 94.2407 204.297 90.132 210.982C86.3725 217.132 82.3368 223.453 76.255 227.557C70.4294 231.472 63.2884 232.913 56.4015 231.562C55.5744 231.386 54.7605 231.152 53.9655 230.863C53.9323 230.847 53.9055 230.82 53.8896 230.787C53.8738 230.754 53.8698 230.716 53.8783 230.68C53.8868 230.644 53.9073 230.612 53.9365 230.589C53.9656 230.566 54.0017 230.554 54.0386 230.555V230.555Z" fill="#263238"/>
<path d="M66.1211 105.528C71.2773 92.9744 79.6409 75.7576 85.2599 73.1251C91.1713 70.3869 112.34 61.6119 117.919 61.1651C123.497 60.7182 143.277 66.5032 146.85 70.0132C149.7 72.8244 144.755 79.5194 133.485 78.5607C122.929 77.6588 120.493 76.9357 117.431 77.3988C114.37 77.8619 105.316 85.1744 106.112 89.6432C106.583 92.2676 112.714 96.7932 117.48 95.9726C122.247 95.1519 125.113 90.4882 131 87.7663C136.887 85.0444 145.332 87.7663 145.226 90.2038C145.121 92.6413 141.978 92.9988 135.596 99.7426C131.471 104.073 128.499 112.678 119.851 119.738C115.507 123.281 106.908 133.486 106.908 133.486L66.1211 105.528Z" fill="#EB9481"/>
<path d="M85.2599 73.1254C91.0738 67.6897 104.675 58.6954 116.197 57.3791C123.984 56.4772 145.315 74.6529 143.399 79.1297C141.483 83.6066 137.325 82.5585 131.341 80.2347C129.165 79.4222 118.349 72.0529 115.71 74.0272C111.877 76.8629 105.024 88.1647 105.024 88.1647L85.2599 73.1254Z" fill="#EB9481"/>
<path d="M143.277 77.1873C141.548 71.4186 135.612 67.0473 129.562 63.2448C129.465 63.1798 129.368 63.3261 129.465 63.383C131 64.358 140.468 72.0686 143.18 77.2442C143.212 77.3011 143.293 77.2442 143.277 77.1873Z" fill="#263238"/>
<path d="M85.2599 73.1252C91.0738 67.6895 104.675 58.6952 116.197 57.3789C123.984 56.477 139.363 76.6595 137.455 81.1445C135.547 85.6295 129.457 84.4514 123.44 80.4458C121.491 79.1458 115.621 72.2558 112.957 74.222C109.116 77.0577 99.7297 84.1345 99.7297 84.1345L85.2599 73.1252Z" fill="#EB9481"/>
<path d="M105.251 79.7065C106.177 78.894 106.502 78.5528 107.444 77.7159C108.386 76.879 109.336 76.0909 110.334 75.2784C111.152 74.5415 112.092 73.9531 113.111 73.5397C114.128 73.2582 115.209 73.3181 116.189 73.7103C118.43 74.5228 120.127 76.5053 121.784 78.1303C123.635 79.934 127.622 83.119 131.17 83.639C132.129 83.8421 133.119 83.8421 134.077 83.639C134.798 83.5116 135.476 83.2074 136.05 82.7534C138.194 80.6003 137.074 77.2203 135.693 74.6284C133.111 69.8834 129.035 65.8778 124.975 62.4409C123.976 61.5878 122.953 60.759 121.938 59.9303C120.823 58.8988 119.499 58.12 118.056 57.6472C115.661 57.0134 111.106 58.4597 109.701 58.8659C109.595 58.8659 109.563 58.7278 109.701 58.6953C111.406 58.1509 115.832 56.1034 119.648 57.2978C121.045 57.7365 122.181 58.8009 123.326 59.6865C124.471 60.5722 125.697 61.5878 126.842 62.5872C129.088 64.5076 131.178 66.6022 133.095 68.8515C134.889 70.9884 136.765 73.4259 137.658 76.1072C138.47 78.4309 138.097 81.3559 136.302 83.119C134.792 84.6059 132.429 84.4515 131.357 84.3215C130.31 84.1887 129.286 83.9155 128.312 83.509C126.183 82.4434 124.134 81.2241 122.181 79.8609C120.298 78.4878 118.771 76.6109 116.782 75.3759C116.318 75.0685 115.797 74.8569 115.251 74.7537C114.704 74.6504 114.142 74.6576 113.599 74.7747C112.563 75.1378 111.589 75.6555 110.708 76.3103C108.899 77.3565 107.192 78.5697 105.609 79.934C105.146 80.2915 104.861 80.064 105.251 79.7065Z" fill="#263238"/>
<path d="M80.745 78.0004C83.0592 75.3029 88.865 63.2129 92.3566 59.9386C95.8482 56.6642 110.529 46.0448 115.62 47.9786C122.019 50.4161 112.096 60.5236 107.387 64.5211C102.677 68.5186 101.126 76.9929 101.126 76.9929L80.745 78.0004Z" fill="#EB9481"/>
<path d="M114.281 57.687C112.657 58.922 111.13 60.3602 109.636 61.7495C108.142 62.9995 106.742 64.3573 105.446 65.812C104.278 67.3504 103.372 69.0718 102.766 70.9064C102.442 71.8002 102.182 72.7102 101.954 73.6283C101.727 74.5464 101.516 75.6677 101.232 76.6589C101.232 76.7645 101.362 76.8295 101.394 76.7158C101.988 74.9122 102.696 73.1482 103.514 71.4345C104.326 69.6465 105.351 67.9633 106.567 66.4214C109.003 63.3664 112.04 60.872 114.492 57.8333C114.581 57.7358 114.402 57.5977 114.281 57.687Z" fill="#263238"/>
<path d="M115.085 95.9565C117.269 96.0834 119.417 95.3582 121.077 93.9333C122.636 92.7633 124.122 91.4958 125.689 90.3339C127.203 89.1147 128.885 88.1213 130.683 87.3846C132.761 86.7278 134.92 86.3667 137.098 86.3121C139.198 86.0878 141.321 86.398 143.269 87.2139C144.844 87.9614 146.517 89.5946 145.648 91.5121C145.209 92.3722 144.608 93.1393 143.878 93.7708C143.194 94.4214 142.461 95.019 141.686 95.5583C140.135 96.6715 138.486 97.6708 137.041 98.9383C135.117 100.628 133.793 102.928 132.38 105.048C131.852 105.861 128.483 111.175 127.2 112.986C126.123 114.53 124.914 115.976 123.586 117.309C122.272 118.517 120.886 119.646 119.437 120.689C117.855 121.816 116.403 123.116 115.109 124.565C115.052 124.638 114.955 124.565 114.995 124.467C116.619 121.477 119.591 119.47 122.303 117.488C125.771 114.92 133.468 101.66 134.865 99.8564C137.187 96.8583 140.711 95.4202 143.358 92.8121C143.967 92.2108 144.901 91.3577 144.885 90.4152C144.81 89.9672 144.621 89.546 144.337 89.1918C144.052 88.8376 143.682 88.5622 143.261 88.3921C141.442 87.4252 139.201 87.4902 137.22 87.6852C135.136 87.79 133.072 88.1307 131.065 88.7008C129.314 89.3298 127.659 90.1964 126.144 91.2764C124.406 92.4789 122.742 93.7139 120.915 94.8027C119.181 95.9433 117.09 96.4114 115.036 96.119C114.938 96.0946 114.987 95.9483 115.085 95.9565Z" fill="#263238"/>
<path d="M143.553 68.4043C142.165 67.7218 140.784 66.9825 139.372 66.3406C139.372 66.3406 139.372 66.2593 139.372 66.2756C141.044 66.9418 142.766 67.4943 144.447 68.1443C145.778 68.6562 147.151 69.4037 147.695 70.8012C147.908 71.4555 147.945 72.1544 147.803 72.8277C147.66 73.5009 147.343 74.1247 146.883 74.6362C145.851 75.7176 144.599 76.5654 143.212 77.1225C143.139 77.1631 143.082 77.0493 143.155 77.0087C145.177 75.8387 148.312 73.4825 146.663 70.7931C145.87 69.7217 144.793 68.8941 143.553 68.4043V68.4043Z" fill="#263238"/>
<path d="M136.789 81.884C138.373 81.9328 140.127 81.884 141.532 81.0715C142.003 80.8119 142.406 80.4436 142.707 79.9971C143.007 79.5506 143.197 79.0387 143.261 78.504C143.346 78.1159 143.291 77.7103 143.107 77.3584C143.042 77.2772 143.196 77.204 143.22 77.3015C143.291 77.5126 143.375 77.7188 143.472 77.919C143.532 78.0984 143.573 78.2836 143.594 78.4715C143.634 78.8449 143.603 79.2224 143.505 79.5847C143.271 80.3733 142.776 81.0584 142.1 81.5265C140.516 82.664 138.551 82.5584 136.765 82.0303C136.692 81.9978 136.708 81.884 136.789 81.884Z" fill="#263238"/>
<path d="M106.892 133.502C103.433 145.99 77.14 212.59 69.832 221.991C62.524 231.392 44.7493 233.415 39.788 216.425C34.8267 199.436 60.6564 118.235 66.113 105.527C69.158 98.4584 108.134 128.976 106.892 133.502Z" fill="#EB9481"/>
<path d="M112.641 141.919L61.046 111.979C61.046 111.979 38.9759 187.728 38.5861 211.087C38.3019 227.849 58.3827 240.378 74.2492 217.717C90.1156 195.057 112.641 141.919 112.641 141.919Z" fill="#F02C5E"/>
<path d="M62.6214 112.938C61.8519 113.869 61.2102 114.899 60.7132 116.001C60.1808 117.129 59.8117 118.327 59.617 119.559C60.4223 118.609 61.0869 117.547 61.5902 116.407C62.1104 115.306 62.4765 114.138 62.6782 112.938H62.6214ZM45.9916 185.169C45.4592 186.297 45.0901 187.495 44.8954 188.727C45.7008 187.777 46.3653 186.715 46.8686 185.575C47.4052 184.442 47.7771 183.238 47.9729 182C47.1697 182.96 46.503 184.026 45.9916 185.169V185.169ZM42.1752 216.312C41.6391 217.439 41.2672 218.638 41.0709 219.871C41.8741 218.917 42.5359 217.852 43.036 216.71C43.5685 215.581 43.9403 214.383 44.1403 213.151C43.3371 214.105 42.6753 215.169 42.1752 216.312V216.312ZM73.3073 205.408C72.7712 206.535 72.3993 207.734 72.203 208.967C73.7993 207.035 74.8605 204.718 75.2805 202.248C74.4764 203.202 73.812 204.266 73.3073 205.408V205.408ZM90.6516 129.188C90.6516 129.261 90.6516 129.342 90.6516 129.415L90.7897 129.244L90.6516 129.188ZM90.1807 166.636C89.642 167.762 89.27 168.961 89.0764 170.194C89.8824 169.241 90.5469 168.177 91.0495 167.034C91.5893 165.911 91.9614 164.714 92.1538 163.483C91.3505 164.426 90.686 165.48 90.1807 166.611V166.636ZM66.3891 158.153C65.8516 159.271 65.4796 160.462 65.2848 161.688C66.8727 159.751 67.9329 157.436 68.3622 154.968C67.5581 155.923 66.8938 156.987 66.3891 158.129V158.153ZM84.0582 149.175C82.9311 148.64 81.7336 148.267 80.5016 148.07C81.4493 148.881 82.5108 149.549 83.6522 150.052C84.7809 150.577 85.9784 150.938 87.2088 151.125C86.2575 150.321 85.1967 149.656 84.0582 149.151V149.175ZM66.3241 187.688C65.1967 187.155 63.9991 186.785 62.7676 186.591C63.7177 187.396 64.7788 188.061 65.9181 188.565C67.0452 189.1 68.2427 189.473 69.4747 189.67C68.5217 188.866 67.4613 188.199 66.3241 187.688V187.688ZM58.6101 140.091C57.4838 139.554 56.286 139.182 55.0536 138.986C56.9838 140.583 59.2995 141.645 61.7688 142.066C60.8127 141.272 59.7493 140.619 58.6101 140.124V140.091ZM54.5501 204.027C54.1292 202.851 53.5442 201.74 52.8124 200.728C53.0475 203.223 53.9322 205.613 55.3784 207.659C55.2851 206.428 55.02 205.216 54.5907 204.059L54.5501 204.027ZM74.777 173.062C74.3733 171.877 73.8018 170.755 73.08 169.731C73.1781 170.974 73.4515 172.197 73.892 173.363C74.3098 174.541 74.895 175.652 75.6296 176.662C75.5163 175.428 75.2293 174.216 74.777 173.062V173.062ZM87.1438 187.013C85.9855 187.435 84.8921 188.018 83.8958 188.744C86.3871 188.51 88.7731 187.625 90.814 186.176C89.558 186.264 88.3215 186.535 87.1438 186.981V187.013ZM52.6825 168.894C51.5225 169.316 50.4287 169.901 49.4345 170.633C50.676 170.531 51.8975 170.258 53.0642 169.821C54.2242 169.399 55.3179 168.814 56.3122 168.082C55.0695 168.176 53.8469 168.45 52.6825 168.894V168.894ZM72.877 131.007C71.7016 131.429 70.5918 132.014 69.5802 132.746C70.8224 132.648 72.0444 132.374 73.2099 131.934C74.3866 131.516 75.4969 130.93 76.5066 130.195C75.2644 130.292 74.0422 130.566 72.877 131.007V131.007ZM102.791 143.097C101.632 143.522 100.539 144.108 99.543 144.836C100.783 144.738 102.002 144.464 103.165 144.024C104.342 143.608 105.453 143.022 106.461 142.285C105.205 142.379 103.97 142.653 102.791 143.097ZM59.4465 221.91C58.2879 222.335 57.1946 222.92 56.1985 223.649C57.438 223.551 58.6573 223.277 59.82 222.836C60.9975 222.42 62.1081 221.834 63.1167 221.097C61.8595 221.193 60.623 221.472 59.4465 221.926V221.91Z" fill="white"/>
<path d="M105.56 151.125C97.7484 146.925 66.389 128.595 59.8848 124.175C59.4301 123.866 59.5194 123.5 60.031 123.76C83.7739 135.753 98.2518 146.25 105.738 150.792C105.925 150.906 105.787 151.215 105.56 151.125Z" fill="#263238"/>
<path d="M89.052 191.279C94.5005 181.042 99.7379 170.698 104.48 160.095C105.795 157.127 107.084 154.148 108.345 151.158C109.555 148.282 110.781 145.397 111.869 142.472C110.789 141.717 106.047 138.613 105.536 138.133C105.381 137.995 105.536 137.727 105.747 137.792C106.38 138.028 111.885 141.221 113.055 142.09C113.225 142.212 110.879 147.916 109.807 150.646C108.735 153.376 107.647 156.09 106.51 158.771C104.258 164.117 101.876 169.401 99.3644 174.623C96.6604 180.262 93.8346 185.819 90.8384 191.287C88.2237 196 82.0119 204.466 89.052 191.279Z" fill="#263238"/>
<path d="M297.492 275.754C297.492 275.754 307.61 277.127 307.983 270.148C308.357 263.169 298.15 263.445 298.15 263.445L297.492 275.754Z" fill="#DD6A57"/>
<path d="M226.881 259.633L226.219 271.94L297.92 275.801L298.582 263.493L226.881 259.633Z" fill="#F02C5E"/>
<path d="M296.174 262.337L295.401 276.706L298.247 276.859L299.02 262.491L296.174 262.337Z" fill="#37474F"/>
<path d="M293.017 262.161L292.244 276.529L295.099 276.683L295.871 262.314L293.017 262.161Z" fill="#37474F"/>
<path d="M226.857 259.61L217.762 263.762L214.758 265.119L217.6 266.825L226.199 271.928L228.05 270.782L226.329 269.466L228.18 268.312L226.459 267.004L228.31 265.875C228.31 265.875 226.621 264.567 226.597 264.534L228.448 263.413L226.727 262.072L228.578 260.951L226.857 259.61Z" fill="#EBEBEB"/>
<path d="M217.762 263.762L214.758 265.119L217.6 266.825L217.762 263.762Z" fill="#37474F"/>
<path d="M167.126 253.062L177.641 280.232H81.6548L93.1283 253.094L167.126 253.062Z" fill="#273176"/>
<path d="M167.889 255.036L177.641 280.232V284.839H81.6548V280.232L92.3001 255.061L167.889 255.036Z" fill="#273176"/>
<path opacity="0.1" d="M167.126 253.062L177.641 280.232H81.6548L93.1283 253.094L167.126 253.062Z" fill="black"/>
<path d="M118.861 272.919L118.26 278.143H106.599L107.72 272.919H118.861Z" fill="white"/>
<path d="M119.551 267.004L118.942 272.228H107.874L109.003 267.004H119.551Z" fill="white"/>
<path d="M120.233 261.089L119.632 266.313H109.149L110.278 261.089H120.233Z" fill="#F02C5E"/>
<path d="M120.923 255.174L120.314 260.39L110.432 260.398L111.561 255.174H120.923Z" fill="#F02C5E"/>
<path d="M131.642 272.919L131.633 278.143H119.973L120.501 272.919H131.642Z" fill="#37474F"/>
<path d="M131.642 267.004V272.228H120.574L121.102 267.004H131.642Z" fill="#37474F"/>
<path d="M131.65 261.089V266.305H121.167L121.695 261.089H131.65Z" fill="#37474F"/>
<path d="M131.723 255.166V260.39H121.841L122.36 255.174L131.723 255.166Z" fill="white"/>
<path d="M144.414 272.919L145.007 278.143H133.347L133.274 272.919H144.414Z" fill="#37474F"/>
<path d="M143.74 267.004L144.333 272.22L133.265 272.228L133.192 267.004H143.74Z" fill="#37474F"/>
<path d="M143.066 261.081L143.659 266.305H133.184L133.111 261.089L143.066 261.081Z" fill="#37474F"/>
<path d="M142.392 255.166L142.985 260.39H133.103L133.03 255.166H142.392Z" fill="white"/>
<path d="M157.195 272.919L158.389 278.143H146.72L146.054 272.919H157.195Z" fill="#37474F"/>
<path d="M155.839 266.996L157.033 272.221H145.965L145.291 267.004L155.839 266.996Z" fill="#37474F"/>
<path d="M154.483 261.081L155.677 266.305H145.202L144.528 261.081H154.483Z" fill="#37474F"/>
<path d="M153.135 255.158L154.329 260.383L144.439 260.391L143.773 255.166L153.135 255.158Z" fill="white"/>
<path d="M169.968 272.919L171.763 278.135L160.102 278.143L158.827 272.919H169.968Z" fill="#37474F"/>
<path d="M167.938 266.996L169.732 272.221H158.657L157.39 266.996H167.938Z" fill="#37474F"/>
<path d="M165.9 261.073L167.694 266.298L157.219 266.306L155.945 261.081L165.9 261.073Z" fill="white"/>
<path d="M163.87 255.158L165.664 260.383H155.782L154.507 255.158H163.87Z" fill="white"/>
<path d="M111.618 276.307C111.155 276.307 110.806 276.161 110.806 275.949C110.806 275.738 111.26 275.592 111.715 275.592C112.178 275.592 112.527 275.73 112.527 275.949C112.527 276.169 112.056 276.307 111.618 276.307ZM111.707 275.787C111.439 275.787 111.212 275.852 111.187 275.949C111.163 276.047 111.382 276.112 111.642 276.112C111.91 276.112 112.137 276.047 112.154 275.949C112.17 275.852 111.967 275.787 111.707 275.787V275.787ZM113.883 276.055L111.082 275.064C111.025 275.064 111.001 275.015 111.009 274.983C111.017 274.95 111.106 274.901 111.204 274.901H111.325L114.135 275.901C114.184 275.901 114.208 275.949 114.208 275.974C114.208 275.998 114.11 276.063 114.005 276.063C113.964 276.07 113.923 276.067 113.883 276.055V276.055ZM113.477 275.389C113.014 275.389 112.665 275.243 112.665 275.031C112.665 274.82 113.112 274.674 113.558 274.674C114.013 274.674 114.37 274.82 114.37 275.031C114.37 275.243 113.932 275.389 113.477 275.389V275.389ZM113.558 274.861C113.29 274.861 113.063 274.934 113.047 275.031C113.031 275.129 113.242 275.194 113.493 275.194C113.761 275.194 113.989 275.129 114.005 275.031C114.021 274.934 113.81 274.861 113.558 274.861V274.861Z" fill="#37474F"/>
<path d="M114.313 265.021C113.461 265.021 112.836 264.664 112.917 264.209C112.948 264.1 113.002 263.999 113.075 263.912C113.147 263.826 113.237 263.755 113.339 263.705C113.448 263.66 113.571 263.66 113.68 263.705C113.777 263.746 113.786 263.827 113.68 263.876C113.609 263.909 113.545 263.957 113.495 264.018C113.444 264.078 113.408 264.149 113.388 264.225C113.379 264.307 113.397 264.39 113.439 264.46C113.482 264.531 113.546 264.585 113.623 264.615C113.847 264.728 114.095 264.783 114.346 264.778C114.612 264.78 114.875 264.725 115.117 264.615C115.206 264.584 115.285 264.532 115.35 264.464C115.415 264.397 115.463 264.315 115.491 264.225C115.497 264.156 115.484 264.086 115.452 264.024C115.421 263.963 115.372 263.911 115.312 263.876C115.247 263.827 115.272 263.746 115.385 263.705C115.438 263.683 115.494 263.671 115.552 263.671C115.609 263.671 115.666 263.683 115.718 263.705C115.804 263.757 115.873 263.832 115.919 263.92C115.965 264.009 115.985 264.109 115.978 264.209C115.921 264.664 115.174 265.021 114.313 265.021Z" fill="#37474F"/>
<path d="M115.905 263.25H113.404C113.274 263.25 113.185 263.193 113.193 263.128L113.323 262.429C113.323 262.364 113.445 262.308 113.575 262.308C113.704 262.308 113.802 262.364 113.794 262.429L113.688 263.014H114.5L114.581 262.511C114.581 262.446 114.711 262.389 114.833 262.389C114.955 262.389 115.061 262.446 115.052 262.511L114.971 263.014H115.783L115.881 262.429C115.881 262.364 116.002 262.308 116.132 262.308C116.262 262.308 116.352 262.364 116.343 262.429L116.238 263.128C116.116 263.25 116.027 263.25 115.905 263.25Z" fill="#37474F"/>
<path d="M115.426 258.465C114.614 258.465 114.046 258.099 114.119 257.652C114.148 257.545 114.199 257.445 114.269 257.358C114.339 257.271 114.426 257.2 114.525 257.148C114.575 257.127 114.629 257.115 114.683 257.115C114.737 257.115 114.791 257.127 114.841 257.148C114.939 257.197 114.939 257.278 114.841 257.327C114.77 257.36 114.708 257.408 114.659 257.469C114.609 257.529 114.575 257.6 114.557 257.676C114.553 257.756 114.571 257.834 114.61 257.904C114.648 257.973 114.706 258.029 114.776 258.066C114.984 258.175 115.216 258.229 115.45 258.221C115.7 258.226 115.947 258.173 116.173 258.066C116.257 258.032 116.333 257.978 116.395 257.911C116.457 257.844 116.503 257.764 116.53 257.676C116.538 257.608 116.525 257.539 116.495 257.477C116.465 257.415 116.418 257.363 116.36 257.327C116.303 257.278 116.36 257.197 116.433 257.148C116.482 257.123 116.536 257.11 116.591 257.11C116.646 257.11 116.7 257.123 116.75 257.148C116.831 257.203 116.896 257.278 116.938 257.367C116.979 257.456 116.996 257.555 116.985 257.652C116.928 258.099 116.23 258.465 115.426 258.465Z" fill="#37474F"/>
<path d="M124.658 275.056L127.427 275.6C127.525 275.6 127.581 275.657 127.581 275.706C127.585 275.722 127.585 275.738 127.581 275.754C127.478 275.821 127.353 275.844 127.232 275.819L124.796 275.348V275.909C124.796 275.974 124.666 276.031 124.52 276.031C124.374 276.031 124.26 275.974 124.268 275.909L124.317 275.161L124.366 275.113H124.683L124.658 275.056Z" fill="white"/>
<path d="M126.753 269.141C127.346 269.141 127.817 269.376 127.801 269.661C127.785 269.945 127.297 270.181 126.705 270.181C126.392 270.197 126.083 270.114 125.82 269.945C125.676 269.996 125.525 270.021 125.373 270.018C124.967 270.018 124.642 269.856 124.65 269.661C124.658 269.466 125.008 269.303 125.414 269.303C125.563 269.3 125.712 269.325 125.852 269.376C126.123 269.211 126.436 269.129 126.753 269.141V269.141ZM126.753 269.376C126.437 269.376 126.161 269.506 126.152 269.661C126.144 269.815 126.404 269.937 126.729 269.945C127.054 269.953 127.314 269.815 127.322 269.661C127.33 269.506 127.062 269.376 126.745 269.376H126.753ZM125.389 269.783C125.535 269.783 125.649 269.726 125.657 269.661C125.665 269.596 125.543 269.539 125.405 269.539C125.267 269.539 125.154 269.596 125.154 269.661C125.154 269.726 125.251 269.75 125.381 269.75L125.389 269.783Z" fill="white"/>
<path d="M126.047 264.249C125.47 264.249 125.024 264.014 125.04 263.721C125.056 263.429 125.478 263.226 125.998 263.201H126.25C126.538 263.201 126.826 263.226 127.111 263.274C127.367 263.314 127.611 263.412 127.825 263.559C127.878 263.596 127.921 263.645 127.954 263.701C127.986 263.757 128.006 263.819 128.012 263.884C128.012 263.949 127.914 264.006 127.776 264.006C127.638 264.006 127.549 263.957 127.541 263.892C127.538 263.852 127.526 263.813 127.507 263.778C127.487 263.743 127.46 263.712 127.427 263.689C127.339 263.625 127.24 263.578 127.135 263.551H127.029C127.077 263.607 127.103 263.679 127.102 263.754C127.086 264.014 126.615 264.249 126.047 264.249ZM126.047 264.014C126.355 264.014 126.615 263.884 126.623 263.721C126.631 263.559 126.388 263.437 126.079 263.437C125.771 263.437 125.519 263.567 125.511 263.721C125.503 263.876 125.746 264.014 126.055 264.014H126.047Z" fill="white"/>
<path d="M126.891 258.245C126.761 258.245 126.656 258.188 126.656 258.123V257.441C126.656 257.376 126.778 257.311 126.907 257.311C127.037 257.311 127.135 257.376 127.135 257.441V258.123C127.135 258.188 127.021 258.245 126.891 258.245Z" fill="#37474F"/>
<path d="M139.664 274.95C139.81 274.95 139.932 274.999 139.932 275.072H140.289C140.435 275.072 140.549 275.129 140.557 275.194C140.565 275.259 140.452 275.316 140.305 275.316H139.948L139.997 275.99C139.997 275.99 139.997 276.039 139.94 276.063C139.882 276.088 139.82 276.101 139.757 276.101C139.695 276.101 139.632 276.088 139.575 276.063L137.342 275.251H137.285H139.404C139.404 274.999 139.518 274.95 139.664 274.95ZM138.259 275.332L139.461 275.763V275.332H138.259Z" fill="white"/>
<path d="M138.202 269.328C138.456 269.209 138.735 269.153 139.014 269.165C139.293 269.161 139.57 269.216 139.826 269.328C140.054 269.433 140.167 269.571 140.175 269.709C140.175 269.848 140.086 269.986 139.875 270.091C139.817 270.116 139.755 270.128 139.692 270.128C139.63 270.128 139.567 270.116 139.51 270.091C139.404 270.043 139.404 269.961 139.51 269.913C139.615 269.864 139.688 269.783 139.68 269.709C139.668 269.661 139.644 269.616 139.61 269.579C139.576 269.542 139.533 269.514 139.485 269.498C139.349 269.442 139.202 269.414 139.055 269.417C138.907 269.411 138.76 269.439 138.625 269.498C138.58 269.514 138.541 269.542 138.512 269.58C138.483 269.617 138.466 269.662 138.462 269.709C138.462 269.783 138.527 269.856 138.649 269.913C138.771 269.969 138.763 270.043 138.649 270.091H138.592H138.438L137.26 270.026C137.197 270.024 137.135 270.004 137.082 269.969C137.077 269.951 137.077 269.931 137.082 269.913V269.271C137.082 269.198 137.187 269.141 137.333 269.141C137.48 269.141 137.585 269.198 137.585 269.271V269.799H138.032C138.001 269.756 137.984 269.705 137.983 269.653C137.886 269.571 137.983 269.433 138.202 269.328Z" fill="white"/>
<path d="M138.6 263.193C139.169 263.193 139.648 263.429 139.664 263.721C139.68 264.014 139.299 264.217 138.779 264.25H138.527C138.233 264.251 137.939 264.224 137.65 264.168C137.384 264.134 137.128 264.04 136.903 263.892C136.791 263.817 136.712 263.7 136.684 263.567C136.684 263.494 136.773 263.445 136.903 263.437C137.033 263.429 137.139 263.486 137.155 263.551C137.16 263.593 137.175 263.634 137.197 263.671C137.22 263.707 137.25 263.738 137.285 263.762C137.381 263.821 137.485 263.865 137.594 263.892H137.707C137.651 263.835 137.617 263.761 137.61 263.681C137.594 263.429 138.04 263.193 138.6 263.193ZM138.6 263.437C138.3 263.437 138.048 263.567 138.056 263.721C138.064 263.876 138.332 264.006 138.641 264.006C138.95 264.006 139.193 263.884 139.177 263.721C139.161 263.559 138.925 263.437 138.617 263.437H138.6Z" fill="white"/>
<path d="M138.04 258.196C138.04 258.261 137.951 258.31 137.837 258.31C137.724 258.31 137.626 258.261 137.618 258.196L137.569 257.319C137.569 257.262 137.659 257.205 137.772 257.205C137.886 257.205 137.975 257.254 137.983 257.319L138.04 258.196ZM136.952 257.611C137.098 257.611 137.228 257.676 137.228 257.758C137.228 257.839 137.115 257.912 136.968 257.912C136.822 257.912 136.7 257.847 136.692 257.758C136.684 257.668 136.798 257.611 136.944 257.611H136.952ZM138.576 257.611C138.722 257.611 138.844 257.676 138.844 257.758C138.844 257.839 138.739 257.912 138.592 257.912C138.438 257.912 138.316 257.839 138.308 257.758C138.3 257.676 138.462 257.611 138.609 257.611H138.576Z" fill="#37474F"/>
<path d="M150.561 275.3H153.354C153.501 275.3 153.622 275.357 153.639 275.422C153.655 275.487 153.549 275.544 153.403 275.544H151.032L151.154 275.625C151.154 275.625 151.203 275.674 151.203 275.69C151.203 275.706 151.203 275.771 151.089 275.787C151.031 275.812 150.969 275.825 150.906 275.825C150.843 275.825 150.781 275.812 150.723 275.787L150.334 275.519H150.537L150.561 275.3Z" fill="white"/>
<path d="M152.177 269.125C152.323 269.125 152.437 269.182 152.453 269.247L152.599 270.019C152.602 270.039 152.596 270.06 152.584 270.076C152.572 270.093 152.554 270.104 152.534 270.108C152.419 270.153 152.292 270.153 152.177 270.108L150.853 269.458C150.712 269.397 150.56 269.367 150.407 269.369C150.278 269.365 150.151 269.39 150.033 269.442C149.911 269.499 149.863 269.572 149.879 269.653C149.895 269.734 149.952 269.783 150.058 269.84L150.196 269.905C150.301 269.954 150.301 270.027 150.196 270.076C150.084 270.12 149.959 270.12 149.847 270.076L149.708 270.011C149.628 269.983 149.556 269.937 149.497 269.876C149.437 269.816 149.393 269.742 149.367 269.661C149.367 269.515 149.441 269.377 149.66 269.271C149.88 269.176 150.118 269.129 150.358 269.133C150.638 269.133 150.915 269.194 151.17 269.312L151.982 269.718L151.893 269.255C151.941 269.182 152.039 269.125 152.177 269.125Z" fill="white"/>
<path d="M149.522 263.388C149.74 263.287 149.98 263.239 150.22 263.25C150.485 263.246 150.748 263.299 150.991 263.405C151.219 263.51 151.349 263.648 151.373 263.787C151.397 263.925 151.324 264.063 151.138 264.168C151.084 264.193 151.026 264.205 150.967 264.205C150.908 264.205 150.85 264.193 150.797 264.168C150.691 264.12 150.683 264.047 150.797 263.998C150.837 263.98 150.871 263.95 150.894 263.912C150.917 263.875 150.929 263.831 150.926 263.787C150.909 263.739 150.88 263.696 150.844 263.661C150.807 263.626 150.763 263.599 150.715 263.583C150.584 263.52 150.439 263.489 150.293 263.494C150.16 263.487 150.028 263.518 149.911 263.583C149.806 263.64 149.765 263.713 149.773 263.787C149.782 263.86 149.773 263.852 149.717 263.876C149.607 263.921 149.485 263.921 149.376 263.876L148.896 263.657L148.953 264.006C148.953 264.071 148.872 264.128 148.734 264.128C148.596 264.128 148.482 264.071 148.474 264.006L148.369 263.364C148.369 263.291 148.458 263.242 148.588 263.242H148.702H148.767L149.367 263.518C149.411 263.466 149.463 263.422 149.522 263.388V263.388Z" fill="white"/>
<path d="M148.531 257.408L149.229 257.668L149.838 257.408C149.885 257.388 149.934 257.378 149.985 257.378C150.035 257.378 150.085 257.388 150.131 257.408C150.131 257.408 150.188 257.457 150.188 257.482C150.188 257.506 150.188 257.547 150.123 257.579L149.611 257.798L150.204 258.01C150.261 258.01 150.301 258.067 150.309 258.099C150.318 258.132 150.309 258.148 150.309 258.172C150.265 258.193 150.216 258.204 150.167 258.204C150.118 258.204 150.07 258.193 150.025 258.172L149.311 257.912L148.702 258.172C148.656 258.192 148.606 258.203 148.556 258.203C148.505 258.203 148.455 258.192 148.409 258.172C148.336 258.115 148.344 258.05 148.409 258.01L148.913 257.798L148.336 257.579C148.239 257.538 148.206 257.465 148.263 257.408C148.306 257.39 148.351 257.381 148.397 257.381C148.443 257.381 148.489 257.39 148.531 257.408Z" fill="#37474F"/>
<path d="M166.03 275.438C166.03 275.349 166.143 275.275 166.338 275.275C166.533 275.275 166.712 275.349 166.744 275.438C166.777 275.527 166.63 275.6 166.436 275.6C166.241 275.6 166.062 275.527 166.03 275.438Z" fill="white"/>
<path d="M163.529 270.238C163.147 270.244 162.767 270.195 162.4 270.092C162.091 270.002 161.84 269.856 161.791 269.685C161.742 269.515 161.913 269.377 162.173 269.287C162.506 269.18 162.854 269.13 163.204 269.141C163.58 269.135 163.955 269.184 164.316 269.287C164.633 269.377 164.893 269.523 164.942 269.685C164.99 269.848 164.82 270.002 164.56 270.092C164.227 270.199 163.878 270.248 163.529 270.238V270.238ZM163.277 269.385C163.003 269.375 162.729 269.408 162.465 269.482C162.294 269.547 162.221 269.62 162.246 269.685C162.27 269.75 162.376 269.832 162.579 269.897C162.844 269.965 163.117 270.001 163.391 270.002C163.652 270.005 163.911 269.97 164.162 269.897C164.333 269.832 164.398 269.759 164.373 269.685C164.349 269.612 164.251 269.547 164.032 269.482C163.785 269.42 163.532 269.388 163.277 269.385V269.385Z" fill="white"/>
<path d="M161.426 264.152C161.296 264.152 161.166 264.095 161.141 264.022L160.955 263.356C160.955 263.282 161.028 263.226 161.158 263.226C161.288 263.226 161.417 263.282 161.442 263.356L161.637 264.022C161.661 264.062 161.588 264.152 161.426 264.152ZM162.238 264.152C162.091 264.152 161.961 264.095 161.945 264.022L161.742 263.356C161.742 263.282 161.823 263.226 161.961 263.226C162.1 263.226 162.229 263.282 162.246 263.356L162.449 264.022C162.457 264.062 162.4 264.152 162.221 264.152H162.238Z" fill="#37474F"/>
<path d="M160.118 257.88L160.216 258.189C160.216 258.254 160.151 258.302 160.029 258.302C159.907 258.302 159.785 258.254 159.769 258.189L159.68 257.88H159.152C159.03 257.88 158.908 257.823 158.892 257.758C158.876 257.693 158.957 257.628 159.087 257.628H159.639L159.55 257.319C159.55 257.254 159.615 257.197 159.737 257.197C159.858 257.197 159.972 257.254 159.988 257.319L160.078 257.628H160.638C160.689 257.623 160.741 257.631 160.788 257.653C160.836 257.674 160.876 257.708 160.906 257.75C160.906 257.823 160.841 257.88 160.711 257.88H160.118Z" fill="#37474F"/>
<path d="M112.446 268.873C112.551 268.873 112.633 268.914 112.624 268.962L112.576 269.239C113.209 269.352 114.866 269.637 115.345 269.702C115.396 269.709 115.445 269.726 115.491 269.751C115.504 269.756 115.514 269.765 115.522 269.776C115.529 269.788 115.532 269.802 115.531 269.816C115.531 269.816 115.531 269.872 115.442 269.897C115.353 269.921 114.809 270.189 114.581 270.279C114.354 270.368 114.135 270.352 114.11 270.336C114.086 270.319 114.11 270.336 114.11 270.287C114.11 270.238 114.11 270.23 114.183 270.206L114.403 270.108L114.581 270.027L114.752 269.954L114.931 269.872L112.316 269.417H112.251C112.251 269.417 112.194 269.369 112.202 269.344L112.267 268.987C112.251 268.938 112.348 268.873 112.446 268.873Z" fill="#37474F"/>
<path d="M106.112 255.174L99.8109 278.143H87.5334L96.2543 255.182L106.112 255.174Z" fill="#455A64"/>
<path d="M95.5968 265.55H99.876C100.103 265.55 100.25 265.639 100.217 265.753C100.185 265.867 99.9816 265.948 99.7542 265.948H96.1896L96.3032 266.094C96.3125 266.11 96.3174 266.128 96.3174 266.147C96.3174 266.166 96.3125 266.184 96.3032 266.2C96.2739 266.245 96.2358 266.283 96.1911 266.312C96.1464 266.342 96.0961 266.361 96.0434 266.37C95.956 266.402 95.8624 266.411 95.7706 266.399C95.6787 266.386 95.5912 266.351 95.5156 266.297L95.1421 265.859H95.4019L95.5968 265.55Z" fill="white"/>
<path d="M100.509 263.445C100.729 263.445 100.867 263.535 100.834 263.648L100.445 264.932C100.407 265 100.347 265.052 100.274 265.078C100.185 265.115 100.09 265.134 99.9939 265.134C99.8977 265.134 99.8025 265.115 99.7137 265.078L98.1384 263.998C97.9462 263.888 97.726 263.837 97.5051 263.852C97.281 263.852 97.0585 263.89 96.8474 263.965C96.7573 263.992 96.6735 264.037 96.601 264.097C96.5285 264.157 96.4687 264.231 96.4251 264.315C96.4047 264.374 96.4067 264.439 96.4306 264.498C96.4545 264.556 96.4987 264.603 96.555 264.632L96.7174 264.745C96.8392 264.827 96.7824 264.948 96.5956 265.03C96.5074 265.069 96.412 265.089 96.3155 265.089C96.219 265.089 96.1236 265.069 96.0354 265.03L95.873 264.916C95.7696 264.863 95.6888 264.775 95.6455 264.668C95.6022 264.56 95.5994 264.44 95.6375 264.331C95.7209 264.173 95.8361 264.035 95.9759 263.924C96.1157 263.814 96.277 263.734 96.4495 263.689C96.8371 263.536 97.2506 263.459 97.6675 263.462C98.0737 263.444 98.4765 263.542 98.8286 263.746L99.8355 264.437L100.071 263.665C100.087 263.535 100.29 263.445 100.509 263.445Z" fill="white"/>
<path d="M98.512 261.568C98.9226 261.393 99.3649 261.305 99.8112 261.308C100.207 261.291 100.599 261.381 100.948 261.568C101.068 261.62 101.166 261.713 101.224 261.831C101.282 261.949 101.297 262.083 101.265 262.21C101.196 262.358 101.098 262.491 100.977 262.6C100.855 262.709 100.713 262.792 100.558 262.844C100.47 262.884 100.375 262.905 100.278 262.905C100.181 262.905 100.086 262.884 99.998 262.844C99.8681 262.763 99.9087 262.633 100.087 262.551C100.171 262.524 100.248 262.479 100.314 262.421C100.379 262.362 100.432 262.29 100.469 262.21C100.487 262.142 100.481 262.07 100.451 262.006C100.421 261.942 100.37 261.891 100.307 261.861C100.115 261.757 99.899 261.707 99.6813 261.714C99.4381 261.713 99.1974 261.763 98.9748 261.861C98.8054 261.923 98.6641 262.044 98.577 262.202C98.577 262.267 98.5039 262.316 98.4064 262.356C98.318 262.395 98.2227 262.414 98.1263 262.414C98.03 262.414 97.9346 262.395 97.8462 262.356L97.2453 261.991L97.0423 262.576C97.0423 262.69 96.7906 262.779 96.5713 262.779C96.3521 262.779 96.2059 262.69 96.2465 262.576L96.62 261.503C96.62 261.39 96.8718 261.3 97.0829 261.3C97.142 261.291 97.2024 261.291 97.2615 261.3H97.3508L98.0979 261.763C98.226 261.679 98.3655 261.613 98.512 261.568Z" fill="white"/>
<path d="M101.053 258.79C101.265 258.79 101.394 258.879 101.362 258.993V259.034H101.882C102.093 259.034 102.223 259.115 102.19 259.229C102.158 259.343 101.971 259.432 101.76 259.432H101.24L100.883 260.569C100.872 260.598 100.856 260.625 100.835 260.647C100.814 260.669 100.789 260.687 100.761 260.699C100.677 260.737 100.585 260.757 100.493 260.757C100.401 260.757 100.31 260.737 100.225 260.699L97.5212 259.359V259.318H100.461V259.278C100.688 258.888 100.85 258.79 101.053 258.79ZM98.7961 259.432L100.241 260.155L100.477 259.432H98.7961Z" fill="white"/>
<path d="M100.047 256.986C100.439 256.807 100.866 256.716 101.297 256.718C101.672 256.706 102.043 256.799 102.369 256.986C102.485 257.039 102.579 257.132 102.632 257.249C102.686 257.365 102.696 257.496 102.661 257.62V257.62C102.598 257.767 102.505 257.9 102.387 258.009C102.27 258.118 102.131 258.201 101.979 258.253C101.896 258.294 101.804 258.315 101.711 258.315C101.618 258.315 101.527 258.294 101.443 258.253C101.321 258.172 101.362 258.042 101.533 257.961C101.616 257.932 101.692 257.886 101.756 257.826C101.82 257.765 101.872 257.693 101.906 257.611C101.926 257.546 101.921 257.475 101.893 257.412C101.865 257.349 101.814 257.299 101.752 257.27C101.575 257.167 101.372 257.116 101.167 257.124C100.932 257.123 100.699 257.173 100.485 257.27C100.403 257.298 100.327 257.343 100.262 257.401C100.198 257.46 100.147 257.532 100.112 257.611C100.089 257.678 100.091 257.75 100.118 257.814C100.145 257.879 100.195 257.931 100.258 257.961C100.38 258.042 100.331 258.172 100.16 258.253L100.063 258.294H99.8274L98.1222 258.188C98.0347 258.184 97.9513 258.15 97.8867 258.091V258.091C97.8768 258.078 97.8715 258.062 97.8715 258.046C97.8715 258.03 97.8768 258.014 97.8867 258.001L98.2602 256.929C98.2602 256.815 98.4957 256.726 98.7068 256.726C98.9179 256.726 99.0478 256.815 99.0072 256.929L98.6987 257.823L99.3483 257.863C99.3323 257.783 99.3323 257.7 99.3483 257.62C99.4164 257.473 99.5133 257.341 99.6332 257.232C99.7532 257.123 99.8937 257.039 100.047 256.986V256.986Z" fill="white"/>
<path d="M237.648 28.7725C237.65 33.799 236.255 38.727 233.62 43.0065C230.986 47.286 227.214 50.7487 222.727 53.008C218.24 55.2674 213.213 56.2345 208.208 55.8015C203.204 55.3684 198.418 53.5523 194.385 50.5557L181.076 53.9438L186.606 41.5694C184.658 37.9329 183.565 33.8997 183.41 29.7768C183.254 25.6539 184.041 21.5498 185.709 17.7768C187.377 14.0038 189.884 10.6612 193.038 8.0035C196.192 5.34576 199.91 3.44282 203.909 2.43946C207.909 1.43609 212.085 1.35873 216.118 2.21327C220.152 3.0678 223.938 4.83171 227.188 7.37081C230.438 9.90991 233.067 13.1573 234.874 16.8659C236.681 20.5745 237.618 24.6467 237.616 28.7725H237.648Z" fill="white"/>
<path d="M238.46 28.9894C238.458 34.0171 237.067 38.9464 234.44 43.2325C233.786 44.2966 233.067 45.3195 232.288 46.2956C231.482 47.2502 230.617 48.1538 229.698 49.0012C229.219 49.4075 228.797 49.8787 228.285 50.2362L226.783 51.3656C226.288 51.7394 225.727 52.04 225.208 52.3731L224.396 52.8687C224.128 53.0231 223.835 53.1531 223.584 53.2912L221.895 54.1037L220.133 54.7619C219.549 54.9885 218.949 55.1705 218.338 55.3062C217.729 55.4525 217.128 55.6637 216.511 55.7531C215.278 55.9936 214.03 56.1457 212.776 56.2081C211.525 56.3097 210.268 56.3097 209.016 56.2081C203.964 55.8102 199.123 54.0062 195.042 51L195.285 51.0487L182.025 54.51L181.311 54.6969L181.611 54.0144L187.109 41.6319V41.9731C185.111 38.2966 183.998 34.2039 183.861 30.0212C183.717 25.8467 184.529 21.6945 186.233 17.8814C187.937 14.0683 190.489 10.695 193.694 8.01874C196.893 5.37026 200.651 3.48241 204.685 2.49727C208.719 1.51212 212.923 1.45536 216.982 2.33124C221.015 3.23317 224.795 5.02963 228.042 7.58811C231.283 10.1342 233.905 13.3832 235.709 17.0903C237.514 20.7974 238.454 24.8659 238.46 28.9894ZM238.46 28.9894C238.438 24.8736 237.295 20.7549 235.479 17.0619C233.664 13.3688 231.011 10.2463 227.765 7.71811C224.508 5.22373 220.946 3.44005 216.933 2.59124C212.922 1.78246 208.779 1.89637 204.818 2.92436C200.856 3.92775 197.178 5.82924 194.067 8.48186C190.994 11.1453 188.539 14.4478 186.873 18.1587C185.236 21.8793 184.465 25.9237 184.62 29.9861C184.775 34.0485 185.851 38.0225 187.766 41.6075L187.856 41.7781L187.783 41.9487L182.22 54.3069L181.806 53.8194L195.107 50.4881H195.237L195.35 50.5694C199.324 53.5673 204.053 55.3988 209.008 55.8587C210.242 55.9752 211.483 55.9942 212.719 55.9156C213.958 55.8683 215.193 55.7353 216.414 55.5175C217.031 55.4281 217.624 55.2331 218.233 55.095C218.84 54.9664 219.437 54.7926 220.019 54.575L221.773 53.9494L223.454 53.1369C223.738 52.9987 224.022 52.8769 224.266 52.7306L225.078 52.2512C225.606 51.9181 226.166 51.6337 226.661 51.2681L228.163 50.155C228.656 49.7751 229.128 49.3682 229.576 48.9362C230.495 48.0953 231.363 47.1999 232.175 46.255C232.958 45.286 233.68 44.2683 234.335 43.2081C236.997 38.9413 238.425 34.0194 238.46 28.9894Z" fill="#263238"/>
<path d="M208.416 43.306L198.323 33.0929L201.717 29.7454L207.604 35.7091L219.849 16.5098L223.86 19.0691L208.416 43.306Z" fill="#F02C5E"/>
<path fill-rule="evenodd" clip-rule="evenodd" d="M244.008 138.938H244.928L243.708 147.875H242.788L244.008 138.938ZM246.448 147.875L247.668 138.938H245.827L244.608 147.875H246.448ZM248.567 138.938H249.488L248.268 147.875H247.348L248.567 138.938ZM250.408 138.938H251.307L250.088 147.875H249.189L250.408 138.938ZM254.047 138.938H253.148L251.929 147.875H253.748L254.968 138.938H254.047ZM255.376 138.938H256.296L255.076 147.875H254.156L255.376 138.938ZM257.816 147.875L259.036 138.938H257.195L255.976 147.875H257.816ZM259.935 138.938H260.856L259.636 147.875H258.716L259.935 138.938ZM261.776 138.938H262.675L261.456 147.875H260.557L261.776 138.938ZM265.415 138.938H264.516L263.297 147.875H264.712H265.116H265.632L266.852 138.938H266.336H265.932H265.415ZM269.592 138.938L268.372 147.875H266.532L267.751 138.938H269.592ZM271.412 138.938H270.491L269.272 147.875H270.192L271.412 138.938ZM273.231 138.938H272.332L271.113 147.875H272.012L273.231 138.938ZM275.072 138.938H275.971H276.488H276.892H277.408L276.188 147.875H275.672H275.268H273.853L275.072 138.938ZM278.928 147.875L280.148 138.938H278.307L277.088 147.875H278.928ZM281.047 138.938H281.968L280.748 147.875H279.828L281.047 138.938ZM282.888 138.938H283.787L282.568 147.875H281.669L282.888 138.938ZM287.448 138.938H287.456L286.237 147.875H286.228H284.409H284.396L285.615 138.938H285.628H286.528H287.448ZM284.716 138.938H283.796L282.576 147.875H283.497L284.716 138.938ZM289.276 138.938H288.355L287.136 147.875H288.056L289.276 138.938ZM291.096 138.938H290.196L288.977 147.875H289.876L291.096 138.938ZM292.936 138.938H293.836H294.756L293.536 147.875H291.717L292.936 138.938Z" fill="#3F3F3F"/>
</g>
<defs>
<clipPath id="clip0_609_4544">
<rect width="406" height="312" fill="white"/>
</clipPath>
</defs>
</svg>
