<svg width="530" height="392" viewBox="0 0 530 392" fill="none" xmlns="http://www.w3.org/2000/svg">
<g opacity="0.1">
<rect x="480.997" y="177" width="86.9988" height="86.9988" transform="rotate(90 480.997 177)" fill="#273176"/>
<rect x="393.999" y="264" width="86.9988" height="86.9988" transform="rotate(90 393.999 264)" fill="#273176"/>
<rect x="306.999" y="177" width="86.9988" height="86.9988" transform="rotate(90 306.999 177)" fill="#273176"/>
<path d="M306.999 264L306.999 350.999L220 264L306.999 264Z" fill="#273176"/>
</g>
<path d="M161.085 122.305C186.857 134.478 202.968 184.425 189.946 225.018C175.906 268.905 130.984 277.275 105.161 267.903C77.7595 257.955 69.5085 227.667 81.902 209.535C93.939 192.048 113.735 186.853 119.1 170.86C121.663 163.204 121.324 149.061 124.617 137.585C128.352 124.784 145.499 114.954 161.085 122.305Z" fill="#263238"/>
<path d="M171.033 129.267C181.163 140.112 188.989 152.899 194.038 166.855C196.555 173.855 198.18 181.145 198.876 188.552C199.202 192.261 199.281 195.987 199.114 199.706C198.917 203.415 198.514 207.111 197.909 210.775C195.43 225.359 189.42 239.722 179.234 250.587C174.12 256.01 168.084 260.482 161.407 263.796C154.746 267.048 147.572 269.121 140.202 269.925C154.854 267.784 168.324 260.669 178.351 249.772C188.249 238.941 194.089 224.917 196.415 210.521C197.028 206.912 197.447 203.274 197.671 199.621C197.852 195.971 197.795 192.313 197.501 188.671C196.837 181.38 195.309 174.193 192.951 167.262C190.56 160.305 187.477 153.605 183.75 147.263C180.099 140.869 175.84 134.843 171.033 129.267Z" fill="#263238"/>
<path d="M122.002 152.203C121.808 156.298 121.239 160.367 120.304 164.359C119.311 168.382 117.683 172.222 115.482 175.734C113.24 179.237 110.361 182.289 106.994 184.732C103.598 187.092 100.321 189.418 97.1467 191.947C90.6137 196.737 85.1065 202.787 80.9502 209.74C76.9518 216.854 75.4516 225.102 76.6889 233.169C75.7914 229.152 75.5961 225.011 76.1116 220.928C76.3805 218.873 76.8467 216.849 77.5038 214.884C78.1417 212.917 78.9483 211.008 79.9146 209.179C83.7515 201.777 89.7954 195.835 96.179 190.725C99.3877 188.161 102.817 185.852 106.145 183.544C109.426 181.239 112.267 178.364 114.532 175.055C119.031 168.4 120.932 160.25 122.002 152.203Z" fill="#263238"/>
<path d="M527.593 366.187C523.808 367.647 413.845 372.553 409.481 370.091C409.006 369.82 409.142 364.998 407.512 352.401C407.512 351.807 404.932 349.481 401.01 346.187C386.29 333.845 351.775 307.852 351.775 307.852L406.68 260.146L459.887 312.453L473.724 326.035C473.724 326.035 518.68 347.393 523.128 350.601C527.577 353.81 531.379 364.71 527.593 366.187Z" fill="#F7A9A0"/>
<path d="M527.609 366.203C523.806 367.646 413.776 372.553 409.48 370.091C409.005 369.82 409.141 364.998 407.511 352.401C423.249 354.778 507.152 359.192 510.055 349.26C511.209 345.372 498.731 338.275 496.473 337.036C508.357 342.791 520.852 349.005 523.093 350.618C527.491 353.844 531.378 364.709 527.609 366.203Z" fill="#263238"/>
<path d="M440.432 288.04L431.943 297.7L389.703 345.933C389.703 345.933 331.538 303.591 314.476 289.703C313.933 289.262 246.77 336.765 197.671 345.933C160.015 352.961 134.413 338.768 119.66 303.659L181.882 276.121C234.037 250.418 292.796 209.502 328.33 213.797C366.902 218.483 440.432 288.04 440.432 288.04Z" fill="#F02C5E"/>
<path d="M427.137 284.508C418.461 293.896 420.838 291.095 412.265 300.568C408.071 305.203 386.917 328.479 383.726 333.454C383.726 333.555 383.726 333.691 383.912 333.623C388.479 329.854 409.107 306.137 413.215 301.366C421.619 291.723 419.107 294.405 427.409 284.677C427.561 284.576 427.307 284.338 427.137 284.508Z" fill="#263238"/>
<path d="M425.237 305.374L389.72 346.034C389.72 346.034 331.538 303.591 314.476 289.72C313.933 289.262 246.77 336.765 197.671 345.95C160.015 352.961 134.396 338.768 119.66 303.659L181.882 276.121C188.792 272.726 195.804 269.042 202.883 265.256C257.5 275.222 377.293 296.8 425.237 305.374Z" fill="#263238"/>
<path d="M518.544 386.627C514.758 388.087 404.795 392.994 400.432 390.532C399.957 390.26 400.076 385.439 398.463 372.841C398.378 372.247 395.882 369.904 391.96 366.628C377.241 354.285 342.726 328.292 342.726 328.292L397.665 280.586L450.872 332.893L464.709 346.475C464.709 346.475 509.665 367.833 514.113 371.042C518.561 374.25 522.33 385.184 518.544 386.627Z" fill="#F7A9A0"/>
<path d="M518.544 386.644C514.758 388.087 404.795 392.993 400.415 390.532C399.957 390.26 400.076 385.438 398.463 372.841C414.201 375.218 498.086 379.632 501.007 369.7C502.161 365.813 489.683 358.716 487.425 357.477C499.309 363.232 511.787 369.446 514.028 371.059C518.442 374.284 522.33 385.184 518.544 386.644Z" fill="#263238"/>
<path d="M484.539 356.339C480.057 353.945 475.609 351.518 471.059 349.294C468.904 348.349 466.896 347.096 465.1 345.576C463.233 343.878 461.484 342.078 459.667 340.33C452.282 333.284 444.931 326.221 437.495 319.227C433.471 315.458 429.481 311.638 425.492 307.818C425.407 307.716 425.237 307.818 425.322 307.954C425.577 308.344 432.266 315.509 435.508 318.751C439.125 322.401 442.826 325.984 446.493 329.583L457.443 340.279L462.978 345.627C464.611 347.258 466.504 348.606 468.58 349.616C473.793 352.095 479.089 354.336 484.386 356.611C484.556 356.696 484.726 356.441 484.539 356.339Z" fill="#263238"/>
<path d="M109.506 292.742C109.506 292.742 101.425 336.883 124.531 355.813C141.169 369.395 163.019 370.77 181.932 368.071C234.189 360.652 278.466 297.53 295.851 294.151C304.764 292.453 374.881 361.772 374.881 361.772L429.344 309.04C415.491 297.02 332.879 213.491 291.182 213.491C262.643 213.491 190.268 272.776 188.536 272.08C185.684 270.96 173.019 264.865 173.019 264.865L109.506 292.742Z" fill="#F02C5E"/>
<path d="M418.309 303.455C411.518 309.193 405.117 315.441 398.683 321.553C392.248 327.665 385.899 333.76 379.617 339.973C376.035 343.505 372.504 347.036 369.057 350.669C369.048 350.688 369.045 350.709 369.049 350.73C369.052 350.751 369.062 350.77 369.077 350.785C369.092 350.8 369.111 350.81 369.132 350.813C369.153 350.817 369.174 350.814 369.193 350.805C375.984 344.965 382.385 338.836 388.853 332.724C395.321 326.612 401.637 320.517 407.936 314.32C411.501 310.823 415.117 307.309 418.496 303.625C418.614 303.591 418.445 303.353 418.309 303.455Z" fill="#263238"/>
<path d="M152.816 285.917C152.714 285.679 152.358 285.917 152.409 286.086C153.971 292.713 153.154 299.678 150.1 305.763C146.568 312.554 140.151 317.342 134.446 322.146C133.886 322.622 134.599 323.488 135.193 323.131C138.891 320.967 142.341 318.405 145.482 315.491C148.392 312.927 150.749 309.796 152.409 306.29C153.883 303.107 154.681 299.653 154.751 296.146C154.821 292.639 154.162 289.156 152.816 285.917Z" fill="#263238"/>
<path d="M189.539 276.529C187.926 275.34 186.228 274.254 184.581 273.133C180.694 270.451 176.789 267.751 172.697 265.222C172.324 264.984 171.882 265.595 172.239 265.867C175.057 268.006 177.96 270.026 180.846 272.081L185.294 275.204C186.79 276.095 188.194 277.13 189.488 278.294C189.732 278.556 189.904 278.876 189.986 279.224C190.069 279.572 190.059 279.935 189.957 280.278C189.856 280.621 189.667 280.932 189.409 281.18C189.151 281.427 188.833 281.603 188.486 281.69C187.116 282.101 185.64 281.973 184.361 281.333C181.469 279.896 178.718 278.19 176.144 276.24C174.531 275.188 172.901 274.135 171.271 273.116C169.641 272.098 167.74 271.028 166.008 269.941C165.906 269.941 165.77 270.043 165.872 270.128C167.485 271.402 169.013 272.777 170.609 274.05C172.205 275.323 173.835 276.58 175.465 277.819C177.094 279.058 178.571 280.111 180.184 281.215C181.535 282.19 183.038 282.936 184.632 283.422C187.23 284.118 191.169 283.337 191.559 280.145C191.563 279.419 191.378 278.705 191.024 278.071C190.67 277.438 190.159 276.906 189.539 276.529V276.529Z" fill="#263238"/>
<path d="M425.729 304.83C422.333 301.298 418.683 297.937 415.084 294.558C411.485 291.18 407.936 287.852 404.303 284.559C397.037 277.937 389.668 271.384 382.147 265.035C374.626 258.685 366.868 252.573 358.922 246.75C350.977 240.927 343.014 235.494 334.628 230.519C330.434 228.024 326.139 225.596 321.776 223.423C317.524 221.175 313.155 219.157 308.686 217.379C307.464 216.92 306.258 216.479 305.053 215.97C304.883 215.97 304.73 216.173 304.917 216.258C307.141 217.243 309.297 218.448 311.487 219.535C313.677 220.622 315.766 221.742 317.888 222.93C322.183 225.188 326.377 227.582 330.587 230.044C338.974 235.035 347.14 240.366 355.085 246.037C363.048 251.724 370.756 257.734 378.294 263.982C385.832 270.23 393.353 276.664 400.687 283.234C408.021 289.805 415.22 296.392 422.52 302.911C423.454 303.726 424.37 304.609 425.321 305.339C425.389 305.393 425.475 305.418 425.561 305.408C425.647 305.399 425.725 305.356 425.78 305.288C425.834 305.22 425.859 305.134 425.849 305.048C425.839 304.962 425.796 304.884 425.729 304.83V304.83Z" fill="#263238"/>
<path d="M372.046 343.64C355.255 327.665 309.807 286.987 299.519 280.196C298.477 279.521 297.308 279.069 296.084 278.868C294.86 278.666 293.607 278.719 292.405 279.024C289.866 279.95 287.552 281.402 285.614 283.286L278.144 289.211L262.779 301.383C253.187 308.989 243.663 316.663 233.918 324.184C225.368 331.007 216.316 337.176 206.839 342.639C188.588 352.825 165.533 359.26 145.431 350.516C136.314 346.448 128.984 339.209 124.804 330.143C120.457 321.094 118.641 311.027 117.52 301.129C117.249 298.735 117.045 296.324 116.841 293.913C116.841 293.795 116.655 293.795 116.655 293.913C117.588 312.589 120.559 334.269 136.365 346.543C153.173 359.599 176.823 357.324 195.396 349.701C216.21 341.213 233.663 326.204 251.099 312.351L281.658 288.141C284.12 286.172 286.531 284.134 289.077 282.267C291.624 280.399 294.595 279.007 297.481 280.688C307.124 286.291 369.55 342.18 371.758 344.116C371.821 344.154 371.896 344.166 371.968 344.148C372.039 344.131 372.101 344.085 372.14 344.022C372.178 343.959 372.189 343.884 372.172 343.812C372.154 343.74 372.109 343.679 372.046 343.64Z" fill="#263238"/>
<path d="M160.694 195.445C171.899 202.236 219.928 230.299 239.044 222.337C250.487 217.566 271.166 184.426 279.128 171.269C283.593 163.901 239.724 150.268 236.294 157.279C230.437 169.265 222.848 185.615 221.014 187.177C219.181 188.739 189.385 182.966 167.552 181.472C147.927 180.131 152.799 190.657 160.694 195.445Z" fill="#F7A9A0"/>
<path d="M284.918 155.887C283.577 164.953 273.628 182.406 269.638 185.7C265.648 188.993 235.361 173.034 234.444 167.788C233.527 162.542 240.352 132.39 247.194 126.024C254.036 119.657 286.293 146.482 284.918 155.887Z" fill="#F7A9A0"/>
<path d="M234.681 162.423C232.959 155.227 230.191 148.323 226.464 141.931C221.761 134.478 213.918 123.935 217.84 121.253C225.887 115.735 245.394 142.05 245.394 142.05C245.394 142.05 252.185 155.038 244.664 161.201C243.274 162.303 241.606 163.001 239.845 163.216C238.083 163.432 236.297 163.157 234.681 162.423V162.423Z" fill="#F7A9A0"/>
<path d="M261.301 164.715L273.797 158.451L255.648 122.255L239.842 130.183L261.301 164.715Z" fill="white"/>
<path d="M239.842 130.183L248.025 143.358L261.301 164.715L273.797 158.451L255.665 122.255L239.842 130.183Z" fill="#F3587F"/>
<path d="M239.842 130.183L248.025 143.358L262.575 136.058L255.665 122.255L239.842 130.183Z" fill="#263238"/>
<path d="M241.065 136.257L260.735 126.398L253.242 111.448L233.572 121.307L241.065 136.257Z" fill="#F3587F"/>
<path d="M217.636 122.458L233.696 116.33L221.574 92.1367L207.042 101.338L217.636 122.458Z" fill="#F3587F"/>
<path d="M227.025 83.4103L244.919 119.114L272.1 109.318L342.743 101.372L299.773 15.6533L251.133 67.4854L227.025 83.4103Z" fill="#F3587F"/>
<path d="M308.788 64.7521C320.672 88.5205 336.58 104.734 344.237 100.897C351.894 97.0601 348.43 74.6669 336.546 50.8815C324.662 27.0961 308.771 10.9166 301.114 14.7535C293.457 18.5904 296.87 40.9667 308.788 64.7521Z" fill="#F3587F"/>
<path d="M311.658 62.4092C322.235 83.5122 335.901 98.0618 342.217 94.955C348.533 91.8481 344.984 72.1543 334.39 51.0343C323.796 29.9144 310.147 15.3817 303.831 18.4886C297.515 21.5955 301.064 41.2893 311.658 62.4092Z" fill="#263238"/>
<path d="M313.49 61.475C314.916 64.2933 316.376 66.9813 317.871 69.5393C319.629 69.9181 321.459 69.7939 323.15 69.181C324.841 68.568 326.325 67.4911 327.432 66.0736C328.54 64.6562 329.226 62.9554 329.411 61.1663C329.597 59.3771 329.274 57.5719 328.481 55.9573L326.461 51.8997C325.651 50.2937 324.406 48.9482 322.867 48.0172C321.328 47.0863 319.558 46.6076 317.76 46.636C315.962 46.6643 314.208 47.1986 312.699 48.1775C311.19 49.1565 309.988 50.5406 309.229 52.1713C310.485 55.1763 311.911 58.3172 313.49 61.475Z" fill="#F3587F"/>
<path d="M232.084 128.027L263.119 116.16L239.673 69.3867L211.592 87.1452L232.084 128.027Z" fill="white"/>
<path d="M232.084 128.027L263.119 116.16L239.673 69.3867L211.592 87.1452L232.084 128.027Z" fill="#263238"/>
<path d="M298.703 23.4629C297.951 27.0092 297.859 30.6639 298.432 34.2436C298.901 37.8309 299.661 41.3739 300.707 44.8375C301.165 46.5352 301.793 48.233 302.404 50.0156C303.015 51.7983 303.661 53.4111 304.357 55.1089C305.053 56.8066 305.766 58.5043 306.53 60.0832C307.294 61.6621 308.058 63.3599 308.873 64.9558C312.095 71.4351 315.902 77.6065 320.248 83.3932C322.436 86.2774 324.88 88.9593 327.548 91.4066C330.167 93.9171 333.293 95.8388 336.716 97.0431C333.401 95.658 330.398 93.6199 327.887 91.0501C325.318 88.5489 322.971 85.8278 320.876 82.9179C316.661 77.1057 312.952 70.9431 309.789 64.4974C306.484 58.1279 303.713 51.4953 301.504 44.6677C300.379 41.2607 299.527 37.7692 298.958 34.2266C298.248 30.6808 298.162 27.0383 298.703 23.4629V23.4629Z" fill="#263238"/>
<path d="M329.364 5.82324C327.921 7.87751 326.597 9.98271 325.273 12.1049C323.948 14.2271 322.709 16.3662 321.453 18.5394C320.196 20.7125 319.008 22.8686 317.854 25.0926L316.156 28.4881C315.63 29.6086 315.052 30.7292 314.543 31.8836C315.273 30.865 315.935 29.8124 316.648 28.7767L318.635 25.6019C319.959 23.4967 321.198 21.3406 322.454 19.1845C323.711 17.0283 324.899 14.8383 326.054 12.6142C327.208 10.3902 328.329 8.18311 329.364 5.82324Z" fill="#263238"/>
<path d="M336.903 79.726C339.721 79.6242 342.522 79.4034 345.392 79.1658C348.261 78.9281 350.977 78.6055 353.778 78.2999C356.58 77.9943 359.364 77.6038 362.131 77.1624L366.308 76.5173C367.683 76.2456 369.075 76.0249 370.467 75.7363C369.041 75.7363 367.649 75.8891 366.24 75.957L362.029 76.2966C359.228 76.5342 356.427 76.8568 353.643 77.1624C350.858 77.468 348.057 77.8585 345.29 78.2999C342.522 78.7413 339.67 79.1658 336.903 79.726Z" fill="#263238"/>
<path d="M383.726 55.5156C379.686 56.3815 375.662 57.3662 371.655 58.3678C367.649 59.3695 363.659 60.4561 359.669 61.5257C355.68 62.5952 351.707 63.7497 347.785 64.9211L341.843 66.7207C339.874 67.3489 337.887 67.9601 335.935 68.6222C337.955 68.1978 339.975 67.7054 341.996 67.247L348.006 65.753C352.029 64.7683 356.002 63.6817 359.992 62.5952C363.982 61.5086 367.971 60.3881 371.876 59.1997C375.781 58.0113 379.805 56.8229 383.726 55.5156Z" fill="#263238"/>
<path d="M351.706 0C348.973 3.19176 346.341 6.45145 343.71 9.72809C341.078 13.0047 338.515 16.2984 335.951 19.6259C333.388 22.9535 330.858 26.2811 328.413 29.6766L324.712 34.7698C323.507 36.4676 322.267 38.1653 321.096 39.863C322.471 38.2841 323.795 36.6543 325.154 35.0415L329.092 30.1519C331.724 26.8923 334.287 23.5817 336.851 20.2541C339.415 16.9265 341.944 13.582 344.406 10.2035C346.868 6.82495 349.346 3.48037 351.706 0Z" fill="#263238"/>
<path d="M329.756 53.8352C334.17 51.8318 338.516 49.7266 342.862 47.5874C347.209 45.4483 351.521 43.2242 355.833 41.0681C360.145 38.912 364.424 36.603 368.702 34.2771L375.086 30.8817C377.191 29.6932 379.313 28.5388 381.401 27.3164C379.194 28.3011 377.021 29.3537 374.831 30.3893L368.295 33.5641C363.948 35.7032 359.653 37.9103 355.324 40.0834C350.995 42.2565 346.733 44.5485 342.472 46.8744C338.211 49.2003 333.949 51.4244 329.756 53.8352Z" fill="#263238"/>
<path d="M238.604 137.891C240.488 142.373 244.681 137.586 244.681 137.586C244.681 137.586 240.301 145.921 244.036 149.775C247.771 153.629 252.525 147.534 252.848 147.11C252.61 147.568 248.79 155.31 252.933 158.807C257.075 162.305 261.082 155.633 261.336 155.191C261.336 155.666 260.25 162.101 264.002 164.053C270.436 167.449 273.458 150.981 278.416 147.857C278.416 147.857 284.68 155.667 284.918 155.853C285.156 156.04 288.093 140.319 283.492 133.783C282.836 132.834 281.878 132.136 280.774 131.803C279.669 131.47 278.485 131.521 277.414 131.949C277.414 131.949 278.993 127.06 275.835 124.207C274.137 122.747 270.402 124.055 270.402 124.055C270.702 122.929 270.686 121.743 270.356 120.626C270.027 119.51 269.397 118.505 268.535 117.722C266.158 115.837 262.729 117.45 262.729 117.45C262.729 117.45 262.015 113.138 258.96 112.001C252.814 109.759 234.682 128.316 238.604 137.891Z" fill="#F7A9A0"/>
<path d="M262.151 117.705C262.151 117.705 262.151 117.535 262.066 117.586C254.272 122.388 248.12 129.446 244.427 137.823C244.325 138.094 244.715 138.383 244.885 138.111C249.617 130.505 255.433 123.63 262.151 117.705V117.705Z" fill="#263238"/>
<path d="M270.47 124.021C270.47 124.021 270.47 123.817 270.334 123.885C261.795 129.257 255.46 137.508 252.474 147.144C252.372 147.484 252.627 147.891 252.763 147.501C255.054 141.066 264.086 129.488 270.47 124.021Z" fill="#263238"/>
<path d="M261.386 155.887C264.391 146.498 270.113 139.011 277.091 132.118C277.175 132.033 277.091 131.914 276.955 131.965C272.625 134.376 268.636 139.198 265.835 143.221C263.178 146.905 261.527 151.218 261.047 155.734C261.03 156.022 261.318 156.141 261.386 155.887Z" fill="#263238"/>
<path d="M244.529 137.637C244.393 137.959 245.004 137.79 244.885 138.112C244.376 139.487 241.999 148.027 244.664 149.742C246.803 151.117 250.114 149.181 251.099 147.959L253.577 144.835L252.338 148.621C251.773 150.295 251.481 152.049 251.472 153.816C251.426 154.635 251.553 155.455 251.846 156.222C252.138 156.988 252.59 157.684 253.17 158.264C253.722 158.788 254.433 159.111 255.191 159.182C255.948 159.252 256.707 159.067 257.346 158.655C258.745 157.687 259.873 156.378 260.623 154.852L262.847 150.692L262.117 155.327C261.911 156.613 261.865 157.918 261.981 159.215C262.062 160.445 262.498 161.625 263.238 162.611C263.59 163.039 264.054 163.362 264.579 163.542C265.103 163.722 265.668 163.752 266.209 163.629C267.378 163.163 268.395 162.382 269.146 161.371C270.793 159.195 272.263 156.89 273.543 154.478C274.239 153.29 274.918 152.085 275.682 150.913C276.362 149.7 277.294 148.646 278.415 147.823C277.401 148.75 276.581 149.869 276.005 151.117C275.343 152.322 274.748 153.562 274.154 154.801C273.018 157.348 271.642 159.781 270.046 162.067C269.209 163.318 268.03 164.302 266.65 164.902C265.858 165.133 265.017 165.129 264.227 164.891C263.438 164.653 262.734 164.191 262.202 163.561C261.227 162.366 260.635 160.905 260.504 159.368C260.318 157.925 260.318 156.464 260.504 155.022L261.998 155.497C261.136 157.321 259.813 158.889 258.161 160.047C257.225 160.666 256.102 160.936 254.987 160.811C253.899 160.651 252.883 160.172 252.067 159.436C251.33 158.702 250.758 157.82 250.389 156.848C250.021 155.876 249.863 154.837 249.927 153.799C249.951 151.855 250.296 149.927 250.946 148.095L252.185 148.774C250.878 150.302 247.415 152.848 243.832 151.151C239.554 148.265 243.663 139.233 244.529 137.637Z" fill="#263238"/>
<path d="M244.681 137.585C243.892 138.193 243.017 138.68 242.084 139.028C241.709 139.173 241.303 139.217 240.907 139.154C240.51 139.091 240.137 138.925 239.826 138.671C239.223 138.018 238.823 137.204 238.671 136.329C238.467 135.378 238.298 134.359 238.145 133.307C237.757 134.318 237.577 135.398 237.619 136.481C237.618 137.681 238.087 138.833 238.926 139.69C239.414 140.107 240.02 140.361 240.659 140.415C241.299 140.47 241.939 140.323 242.491 139.996C243.465 139.454 244.235 138.607 244.681 137.585Z" fill="#263238"/>
<path d="M210.353 182.626L185.176 211.148C185.176 211.148 168.198 202.286 159.54 196.055C148.046 187.821 148.402 181.625 165.669 179.944C177.213 178.823 210.353 182.626 210.353 182.626Z" fill="white"/>
<path opacity="0.2" d="M190.71 204.748C190.42 204.748 190.133 204.805 189.865 204.916C189.597 205.027 189.354 205.189 189.149 205.394C188.944 205.599 188.782 205.843 188.671 206.11C188.56 206.378 188.503 206.665 188.503 206.955C188.486 207.079 188.486 207.204 188.503 207.328L189.233 206.496C189.285 206.296 189.382 206.111 189.518 205.955C189.653 205.799 189.823 205.676 190.014 205.597L190.71 204.799V204.748ZM202.696 191.302C202.591 190.821 202.325 190.391 201.942 190.082C201.56 189.773 201.083 189.604 200.591 189.604C200.301 189.604 200.014 189.661 199.746 189.772C199.478 189.883 199.235 190.045 199.03 190.25C198.825 190.455 198.662 190.699 198.552 190.966C198.441 191.234 198.384 191.521 198.384 191.811C198.386 192.352 198.592 192.872 198.96 193.268C199.328 193.664 199.831 193.908 200.37 193.95L200.998 193.237C200.863 193.262 200.725 193.262 200.591 193.237C200.29 193.24 199.996 193.154 199.745 192.99C199.494 192.825 199.297 192.589 199.181 192.312C199.065 192.035 199.033 191.73 199.091 191.436C199.149 191.141 199.293 190.87 199.505 190.658C199.718 190.445 199.988 190.301 200.283 190.243C200.578 190.186 200.883 190.217 201.16 190.333C201.437 190.45 201.672 190.646 201.837 190.897C202.002 191.148 202.088 191.443 202.085 191.743C202.093 191.816 202.093 191.89 202.085 191.964L202.696 191.302ZM180.812 189.604C180.38 189.607 179.959 189.738 179.602 189.98C179.244 190.222 178.966 190.564 178.802 190.964C178.639 191.363 178.597 191.802 178.682 192.225C178.767 192.649 178.975 193.037 179.28 193.343C179.586 193.648 179.974 193.856 180.397 193.941C180.821 194.026 181.26 193.984 181.659 193.821C182.059 193.657 182.401 193.379 182.643 193.021C182.885 192.664 183.016 192.243 183.019 191.811C183.023 191.519 182.97 191.229 182.861 190.959C182.751 190.688 182.589 190.442 182.384 190.234C182.178 190.027 181.933 189.863 181.663 189.752C181.393 189.641 181.104 189.585 180.812 189.587V189.604ZM180.812 193.305C180.512 193.308 180.217 193.222 179.966 193.057C179.715 192.893 179.519 192.657 179.402 192.38C179.286 192.103 179.254 191.798 179.312 191.503C179.37 191.209 179.514 190.938 179.727 190.726C179.939 190.513 180.21 190.369 180.504 190.311C180.799 190.254 181.104 190.285 181.381 190.401C181.658 190.518 181.894 190.714 182.058 190.965C182.223 191.216 182.309 191.511 182.306 191.811C182.284 192.194 182.118 192.554 181.841 192.819C181.563 193.084 181.195 193.233 180.812 193.237V193.305ZM161.05 189.604C160.618 189.604 160.195 189.732 159.835 189.972C159.475 190.212 159.195 190.553 159.028 190.952C158.862 191.351 158.818 191.791 158.901 192.215C158.984 192.639 159.191 193.03 159.496 193.337C159.8 193.644 160.189 193.854 160.613 193.94C161.036 194.026 161.476 193.985 161.877 193.822C162.277 193.659 162.62 193.381 162.863 193.023C163.106 192.665 163.237 192.243 163.24 191.811C163.242 191.521 163.188 191.234 163.079 190.965C162.97 190.696 162.809 190.452 162.606 190.245C162.402 190.039 162.16 189.874 161.893 189.761C161.627 189.648 161.34 189.589 161.05 189.587V189.604ZM161.05 193.305C160.751 193.305 160.458 193.216 160.209 193.049C159.96 192.882 159.766 192.645 159.653 192.368C159.539 192.091 159.51 191.787 159.57 191.493C159.629 191.199 159.775 190.93 159.988 190.72C160.201 190.509 160.472 190.366 160.766 190.31C161.06 190.254 161.364 190.286 161.64 190.403C161.916 190.52 162.151 190.716 162.315 190.967C162.479 191.218 162.564 191.511 162.561 191.811C162.539 192.197 162.371 192.56 162.09 192.825C161.809 193.09 161.437 193.238 161.05 193.237V193.305Z" fill="black"/>
<path d="M205.09 183.051C201.134 186.956 197.263 190.911 193.545 195.037C191.678 197.091 189.861 199.162 188.078 201.285C186.296 203.407 184.683 205.699 182.883 207.77C182.798 207.889 182.985 208.042 183.07 207.923C184.768 205.75 186.788 203.797 188.605 201.709C190.421 199.621 192.272 197.549 194.122 195.495C197.806 191.37 201.49 187.244 205.276 183.204C205.378 183.17 205.192 183.051 205.09 183.051Z" fill="#263238"/>
<path opacity="0.1" d="M197.009 197.736L185.125 211.165C176.324 206.58 167.768 201.542 159.489 196.072C151.255 190.164 149.115 185.308 154.888 182.49L197.009 197.736Z" fill="black"/>
<path d="M194.988 254.866L198.383 267.599C198.383 267.599 106.077 338.157 101.901 335.848C101.901 335.848 115.584 212.575 139.251 188.144C151.135 175.904 164.598 177.177 173.019 186.141C175.141 188.416 198.282 217.379 200.709 230.605C202.815 242.268 194.988 254.866 194.988 254.866Z" fill="white"/>
<path d="M193.291 213.966C191.864 211.369 190.37 208.873 188.775 206.36C188.4 205.43 187.969 204.523 187.484 203.644C186.822 202.337 186.177 201.046 185.6 199.705C185.6 199.586 185.379 199.705 185.43 199.79C186.041 201.114 186.584 202.439 187.128 203.797V204.018C186.551 203.169 185.939 202.32 185.328 201.505C184.36 200.215 183.444 198.856 182.357 197.668C182.357 197.668 182.221 197.668 182.255 197.753C183.019 199.145 183.953 200.452 184.853 201.794C185.753 203.135 186.635 204.578 187.569 205.97C189.369 208.686 191.219 211.369 193.053 214.068C193.066 214.1 193.092 214.125 193.124 214.137C193.139 214.144 193.156 214.147 193.173 214.147C193.19 214.146 193.207 214.143 193.223 214.136C193.238 214.129 193.252 214.12 193.264 214.108C193.276 214.095 193.285 214.081 193.292 214.065C193.298 214.05 193.301 214.033 193.301 214.016C193.301 213.999 193.297 213.982 193.291 213.966V213.966Z" fill="#263238"/>
<path opacity="0.2" d="M141.306 189.587C140.874 189.59 140.453 189.721 140.095 189.963C139.738 190.205 139.46 190.547 139.296 190.947C139.132 191.346 139.091 191.785 139.176 192.208C139.261 192.632 139.469 193.02 139.774 193.326C140.079 193.631 140.468 193.839 140.891 193.924C141.315 194.009 141.754 193.967 142.153 193.804C142.552 193.64 142.895 193.362 143.137 193.004C143.379 192.647 143.509 192.226 143.513 191.794C143.515 191.504 143.46 191.216 143.349 190.947C143.239 190.678 143.077 190.434 142.871 190.228C142.666 190.023 142.422 189.861 142.153 189.75C141.884 189.64 141.596 189.585 141.306 189.587V189.587ZM141.306 193.288C140.935 193.249 140.592 193.073 140.342 192.796C140.093 192.518 139.955 192.159 139.955 191.786C139.955 191.412 140.093 191.053 140.342 190.775C140.592 190.498 140.935 190.323 141.306 190.283C141.677 190.323 142.02 190.498 142.269 190.775C142.519 191.053 142.657 191.412 142.657 191.786C142.657 192.159 142.519 192.518 142.269 192.796C142.02 193.073 141.677 193.249 141.306 193.288V193.288ZM161.084 189.587C160.652 189.587 160.229 189.715 159.869 189.955C159.51 190.195 159.229 190.536 159.063 190.935C158.896 191.334 158.852 191.774 158.935 192.198C159.018 192.622 159.225 193.013 159.53 193.32C159.835 193.627 160.223 193.837 160.647 193.923C161.071 194.009 161.51 193.968 161.911 193.805C162.311 193.642 162.655 193.364 162.897 193.006C163.14 192.648 163.271 192.226 163.275 191.794C163.275 191.503 163.217 191.214 163.105 190.945C162.993 190.677 162.829 190.433 162.622 190.227C162.415 190.022 162.17 189.86 161.9 189.75C161.631 189.64 161.342 189.585 161.05 189.587H161.084ZM161.084 193.288C160.785 193.288 160.492 193.199 160.243 193.032C159.994 192.865 159.801 192.628 159.687 192.351C159.573 192.074 159.544 191.77 159.604 191.476C159.664 191.182 159.809 190.913 160.022 190.703C160.235 190.492 160.506 190.349 160.8 190.293C161.094 190.237 161.399 190.269 161.675 190.386C161.95 190.503 162.185 190.699 162.349 190.95C162.513 191.201 162.599 191.494 162.595 191.794C162.578 192.189 162.406 192.561 162.117 192.831C161.829 193.101 161.446 193.246 161.05 193.237L161.084 193.288ZM123.615 221.097C123.361 221.895 123.123 222.693 122.885 223.508C123.151 223.312 123.366 223.056 123.514 222.761C123.661 222.466 123.737 222.14 123.734 221.81C123.728 221.565 123.676 221.323 123.581 221.097H123.615ZM141.306 219.603C140.874 219.606 140.453 219.737 140.095 219.979C139.738 220.221 139.46 220.563 139.296 220.963C139.132 221.362 139.091 221.801 139.176 222.225C139.261 222.648 139.469 223.036 139.774 223.342C140.079 223.647 140.468 223.855 140.891 223.94C141.315 224.025 141.754 223.983 142.153 223.82C142.552 223.656 142.895 223.378 143.137 223.02C143.379 222.663 143.509 222.242 143.513 221.81C143.515 221.52 143.46 221.232 143.349 220.963C143.239 220.694 143.077 220.45 142.871 220.244C142.666 220.039 142.422 219.877 142.153 219.766C141.884 219.656 141.596 219.601 141.306 219.603V219.603ZM141.306 223.304C140.911 223.3 140.533 223.141 140.254 222.862C139.975 222.582 139.816 222.205 139.812 221.81C139.829 221.427 139.995 221.066 140.274 220.803C140.553 220.541 140.923 220.396 141.306 220.401C141.503 220.396 141.7 220.432 141.883 220.505C142.066 220.579 142.233 220.689 142.372 220.828C142.512 220.968 142.622 221.135 142.695 221.318C142.769 221.501 142.804 221.698 142.8 221.895C142.782 222.278 142.616 222.639 142.338 222.902C142.059 223.165 141.689 223.309 141.306 223.304V223.304ZM161.084 219.603C160.652 219.603 160.229 219.731 159.869 219.971C159.51 220.211 159.229 220.552 159.063 220.951C158.896 221.35 158.852 221.79 158.935 222.214C159.018 222.639 159.225 223.029 159.53 223.336C159.835 223.643 160.223 223.853 160.647 223.939C161.071 224.026 161.51 223.985 161.911 223.821C162.311 223.658 162.655 223.38 162.897 223.022C163.14 222.664 163.271 222.243 163.275 221.81C163.275 221.519 163.217 221.231 163.105 220.962C162.993 220.693 162.829 220.449 162.622 220.243C162.415 220.038 162.17 219.876 161.9 219.766C161.631 219.656 161.342 219.601 161.05 219.603H161.084ZM161.084 223.304C160.69 223.3 160.312 223.141 160.033 222.862C159.754 222.582 159.595 222.205 159.59 221.81C159.63 221.439 159.805 221.096 160.083 220.847C160.36 220.597 160.72 220.459 161.093 220.459C161.466 220.459 161.826 220.597 162.103 220.847C162.381 221.096 162.556 221.439 162.595 221.81C162.593 222.01 162.551 222.207 162.472 222.391C162.393 222.575 162.279 222.741 162.135 222.88C161.991 223.019 161.821 223.128 161.635 223.201C161.449 223.273 161.25 223.309 161.05 223.304H161.084ZM180.846 219.603C180.414 219.606 179.993 219.737 179.636 219.979C179.278 220.221 179 220.563 178.837 220.963C178.673 221.362 178.631 221.801 178.716 222.225C178.801 222.648 179.009 223.036 179.315 223.342C179.62 223.647 180.009 223.855 180.432 223.94C180.855 224.025 181.294 223.983 181.693 223.82C182.093 223.656 182.435 223.378 182.677 223.02C182.919 222.663 183.05 222.242 183.053 221.81C183.056 221.517 182.999 221.226 182.887 220.955C182.775 220.684 182.609 220.438 182.4 220.232C182.191 220.026 181.943 219.865 181.67 219.756C181.397 219.648 181.106 219.596 180.812 219.603H180.846ZM180.846 223.304C180.451 223.3 180.074 223.141 179.795 222.862C179.515 222.582 179.357 222.205 179.352 221.81C179.352 221.614 179.391 221.42 179.466 221.238C179.541 221.057 179.651 220.892 179.79 220.754C179.928 220.615 180.093 220.505 180.274 220.43C180.456 220.355 180.65 220.316 180.846 220.316C181.042 220.316 181.237 220.355 181.418 220.43C181.599 220.505 181.764 220.615 181.903 220.754C182.041 220.892 182.151 221.057 182.226 221.238C182.302 221.42 182.34 221.614 182.34 221.81C182.338 222.009 182.297 222.205 182.219 222.387C182.141 222.57 182.028 222.735 181.886 222.874C181.744 223.012 181.576 223.122 181.392 223.196C181.208 223.27 181.011 223.306 180.812 223.304H180.846ZM131.442 204.748C131.009 204.744 130.584 204.87 130.222 205.107C129.86 205.345 129.577 205.685 129.408 206.084C129.239 206.483 129.192 206.923 129.274 207.348C129.355 207.774 129.56 208.166 129.864 208.474C130.168 208.783 130.557 208.995 130.981 209.082C131.405 209.17 131.846 209.13 132.247 208.968C132.649 208.805 132.993 208.527 133.236 208.169C133.48 207.81 133.612 207.388 133.615 206.955C133.615 206.665 133.558 206.378 133.447 206.11C133.336 205.843 133.173 205.599 132.969 205.394C132.764 205.189 132.52 205.027 132.252 204.916C131.985 204.805 131.698 204.748 131.408 204.748H131.442ZM131.442 208.449C131.141 208.456 130.845 208.372 130.592 208.21C130.338 208.047 130.139 207.813 130.02 207.536C129.901 207.26 129.867 206.954 129.923 206.658C129.979 206.362 130.122 206.09 130.333 205.876C130.545 205.662 130.816 205.516 131.111 205.457C131.406 205.398 131.712 205.428 131.99 205.544C132.268 205.66 132.504 205.856 132.67 206.107C132.836 206.359 132.922 206.654 132.919 206.955C132.931 207.159 132.9 207.363 132.829 207.554C132.758 207.746 132.648 207.92 132.506 208.067C132.364 208.214 132.193 208.33 132.004 208.407C131.815 208.485 131.612 208.522 131.408 208.517L131.442 208.449ZM151.204 204.748C150.771 204.748 150.348 204.876 149.989 205.116C149.629 205.356 149.348 205.697 149.182 206.096C149.016 206.495 148.971 206.935 149.054 207.359C149.138 207.783 149.344 208.174 149.649 208.481C149.954 208.788 150.342 208.997 150.766 209.084C151.19 209.17 151.63 209.129 152.03 208.966C152.43 208.803 152.774 208.525 153.016 208.167C153.259 207.809 153.39 207.387 153.394 206.955C153.394 206.664 153.336 206.375 153.224 206.106C153.112 205.837 152.948 205.593 152.741 205.388C152.534 205.183 152.289 205.021 152.019 204.911C151.75 204.801 151.461 204.746 151.17 204.748H151.204ZM151.204 208.449C150.903 208.452 150.609 208.366 150.358 208.201C150.107 208.037 149.91 207.801 149.794 207.524C149.678 207.247 149.646 206.942 149.704 206.647C149.762 206.353 149.906 206.082 150.118 205.87C150.331 205.657 150.601 205.513 150.896 205.455C151.191 205.397 151.496 205.429 151.773 205.545C152.049 205.662 152.285 205.858 152.45 206.109C152.615 206.36 152.701 206.655 152.698 206.955C152.704 207.159 152.67 207.362 152.596 207.553C152.522 207.743 152.41 207.917 152.268 208.063C152.125 208.209 151.954 208.324 151.765 208.402C151.576 208.48 151.374 208.519 151.17 208.517L151.204 208.449ZM170.948 204.748C170.517 204.751 170.096 204.882 169.738 205.124C169.38 205.366 169.102 205.708 168.939 206.108C168.775 206.507 168.733 206.946 168.818 207.369C168.903 207.793 169.111 208.181 169.417 208.486C169.722 208.792 170.111 209 170.534 209.085C170.957 209.17 171.396 209.128 171.796 208.964C172.195 208.801 172.537 208.523 172.779 208.165C173.021 207.808 173.152 207.387 173.155 206.955C173.158 206.661 173.101 206.371 172.989 206.1C172.877 205.829 172.711 205.583 172.502 205.377C172.293 205.171 172.045 205.009 171.772 204.901C171.499 204.793 171.208 204.741 170.914 204.748H170.948ZM170.948 208.449C170.649 208.449 170.356 208.36 170.107 208.193C169.858 208.026 169.665 207.789 169.551 207.512C169.437 207.235 169.408 206.93 169.468 206.637C169.527 206.343 169.673 206.074 169.886 205.863C170.099 205.653 170.37 205.51 170.664 205.454C170.958 205.398 171.263 205.43 171.538 205.547C171.814 205.664 172.049 205.86 172.213 206.111C172.377 206.362 172.463 206.655 172.459 206.955C172.469 207.161 172.436 207.367 172.361 207.56C172.287 207.752 172.174 207.928 172.029 208.074C171.884 208.221 171.71 208.336 171.518 208.412C171.326 208.489 171.121 208.524 170.914 208.517L170.948 208.449ZM188.554 206.853C188.546 206.886 188.546 206.921 188.554 206.955C188.559 207.398 188.698 207.83 188.953 208.194C189.207 208.557 189.565 208.835 189.98 208.992C189.471 208.279 188.995 207.566 188.52 206.819L188.554 206.853ZM121.544 249.636C121.111 249.636 120.687 249.765 120.327 250.005C119.967 250.246 119.686 250.588 119.521 250.988C119.355 251.388 119.311 251.829 119.396 252.254C119.48 252.678 119.689 253.069 119.995 253.375C120.302 253.681 120.692 253.89 121.117 253.974C121.542 254.059 121.982 254.015 122.382 253.85C122.782 253.684 123.124 253.403 123.365 253.043C123.606 252.683 123.734 252.259 123.734 251.826C123.734 251.536 123.676 251.248 123.564 250.98C123.452 250.712 123.288 250.469 123.081 250.266C122.874 250.062 122.628 249.901 122.359 249.793C122.089 249.685 121.8 249.632 121.51 249.636H121.544ZM121.544 253.337C121.245 253.337 120.953 253.249 120.705 253.083C120.456 252.917 120.262 252.681 120.148 252.404C120.034 252.128 120.004 251.825 120.062 251.531C120.12 251.238 120.264 250.969 120.476 250.758C120.687 250.547 120.956 250.403 121.249 250.344C121.542 250.286 121.846 250.316 122.122 250.43C122.398 250.545 122.634 250.738 122.8 250.987C122.966 251.235 123.055 251.527 123.055 251.826C123.055 252.028 123.015 252.227 122.937 252.412C122.859 252.598 122.744 252.766 122.6 252.907C122.457 253.048 122.286 253.158 122.099 253.232C121.911 253.306 121.711 253.342 121.51 253.337H121.544ZM141.306 249.636C140.873 249.64 140.452 249.771 140.094 250.014C139.736 250.256 139.458 250.599 139.294 251C139.131 251.4 139.09 251.84 139.177 252.264C139.263 252.688 139.473 253.076 139.78 253.381C140.087 253.685 140.477 253.892 140.902 253.975C141.326 254.059 141.765 254.014 142.165 253.848C142.564 253.682 142.905 253.401 143.145 253.041C143.385 252.681 143.513 252.259 143.513 251.826C143.513 251.537 143.456 251.251 143.344 250.984C143.233 250.717 143.071 250.475 142.865 250.272C142.66 250.068 142.417 249.907 142.149 249.798C141.881 249.689 141.595 249.634 141.306 249.636V249.636ZM141.306 253.337C140.935 253.298 140.592 253.122 140.342 252.845C140.093 252.568 139.955 252.208 139.955 251.835C139.955 251.462 140.093 251.102 140.342 250.824C140.592 250.547 140.935 250.372 141.306 250.332C141.677 250.372 142.02 250.547 142.269 250.824C142.519 251.102 142.657 251.462 142.657 251.835C142.657 252.208 142.519 252.568 142.269 252.845C142.02 253.122 141.677 253.298 141.306 253.337V253.337ZM161.084 249.636C160.651 249.636 160.228 249.765 159.868 250.005C159.508 250.246 159.227 250.588 159.061 250.988C158.895 251.388 158.852 251.829 158.936 252.254C159.021 252.678 159.23 253.069 159.536 253.375C159.842 253.681 160.232 253.89 160.657 253.974C161.082 254.059 161.522 254.015 161.923 253.85C162.323 253.684 162.665 253.403 162.905 253.043C163.146 252.683 163.275 252.259 163.275 251.826C163.272 251.536 163.213 251.25 163.1 250.983C162.987 250.716 162.823 250.474 162.616 250.271C162.41 250.067 162.165 249.907 161.896 249.798C161.628 249.689 161.34 249.634 161.05 249.636H161.084ZM161.084 253.337C160.786 253.337 160.493 253.249 160.245 253.083C159.997 252.917 159.803 252.681 159.688 252.404C159.574 252.128 159.544 251.825 159.602 251.531C159.661 251.238 159.805 250.969 160.016 250.758C160.227 250.547 160.497 250.403 160.79 250.344C161.083 250.286 161.387 250.316 161.663 250.43C161.939 250.545 162.175 250.738 162.341 250.987C162.507 251.235 162.595 251.527 162.595 251.826C162.595 252.028 162.555 252.227 162.477 252.412C162.399 252.598 162.285 252.766 162.141 252.907C161.997 253.048 161.826 253.158 161.639 253.232C161.452 253.306 161.252 253.342 161.05 253.337H161.084ZM180.846 249.636C180.414 249.64 179.992 249.771 179.634 250.014C179.276 250.256 178.998 250.599 178.835 251C178.672 251.4 178.631 251.84 178.717 252.264C178.804 252.688 179.014 253.076 179.321 253.381C179.627 253.685 180.018 253.892 180.442 253.975C180.866 254.059 181.306 254.014 181.705 253.848C182.104 253.682 182.445 253.401 182.685 253.041C182.925 252.681 183.053 252.259 183.053 251.826C183.053 251.534 182.995 251.245 182.882 250.976C182.769 250.707 182.603 250.463 182.394 250.259C182.185 250.055 181.938 249.895 181.666 249.788C181.394 249.681 181.104 249.629 180.812 249.636H180.846ZM180.846 253.337C180.547 253.341 180.253 253.255 180.002 253.091C179.751 252.927 179.555 252.692 179.438 252.416C179.321 252.141 179.289 251.836 179.345 251.542C179.402 251.248 179.544 250.977 179.755 250.764C179.965 250.551 180.235 250.405 180.528 250.346C180.822 250.286 181.126 250.315 181.403 250.429C181.681 250.543 181.918 250.736 182.084 250.985C182.251 251.234 182.34 251.527 182.34 251.826C182.34 252.026 182.301 252.224 182.224 252.408C182.147 252.593 182.034 252.76 181.892 252.901C181.75 253.041 181.581 253.152 181.396 253.227C181.21 253.302 181.012 253.339 180.812 253.337H180.846ZM131.442 234.764C131.004 234.757 130.574 234.881 130.207 235.119C129.839 235.358 129.551 235.7 129.379 236.103C129.206 236.505 129.158 236.95 129.239 237.38C129.32 237.811 129.528 238.207 129.835 238.519C130.142 238.831 130.536 239.045 130.965 239.133C131.394 239.221 131.839 239.179 132.244 239.013C132.65 238.847 132.996 238.564 133.24 238.201C133.485 237.837 133.615 237.409 133.615 236.971C133.615 236.681 133.558 236.394 133.447 236.126C133.336 235.859 133.173 235.615 132.969 235.41C132.764 235.205 132.52 235.043 132.252 234.932C131.985 234.821 131.698 234.764 131.408 234.764H131.442ZM131.442 238.482C131.142 238.489 130.846 238.406 130.593 238.244C130.34 238.082 130.141 237.849 130.022 237.573C129.902 237.298 129.867 236.993 129.922 236.698C129.976 236.402 130.117 236.13 130.327 235.915C130.537 235.7 130.806 235.553 131.1 235.492C131.394 235.431 131.7 235.459 131.978 235.572C132.256 235.685 132.494 235.879 132.662 236.128C132.829 236.377 132.919 236.671 132.919 236.971C132.921 237.17 132.884 237.368 132.808 237.552C132.733 237.736 132.622 237.904 132.481 238.044C132.341 238.185 132.173 238.296 131.989 238.372C131.804 238.447 131.607 238.484 131.408 238.482H131.442ZM151.204 234.764C150.766 234.761 150.338 234.887 149.973 235.128C149.608 235.368 149.322 235.712 149.152 236.115C148.983 236.518 148.937 236.962 149.02 237.391C149.103 237.82 149.312 238.215 149.62 238.526C149.928 238.836 150.321 239.048 150.75 239.134C151.178 239.221 151.623 239.178 152.027 239.012C152.432 238.845 152.777 238.562 153.02 238.199C153.264 237.836 153.394 237.408 153.394 236.971C153.394 236.68 153.336 236.391 153.224 236.122C153.112 235.854 152.948 235.61 152.741 235.404C152.534 235.199 152.289 235.037 152.019 234.927C151.75 234.817 151.461 234.762 151.17 234.764H151.204ZM151.204 238.482C150.993 238.504 150.78 238.482 150.578 238.417C150.377 238.352 150.191 238.245 150.033 238.103C149.876 237.961 149.75 237.788 149.663 237.595C149.577 237.401 149.533 237.191 149.533 236.98C149.533 236.768 149.577 236.558 149.663 236.364C149.75 236.171 149.876 235.998 150.033 235.856C150.191 235.714 150.377 235.607 150.578 235.542C150.78 235.477 150.993 235.455 151.204 235.477C151.575 235.516 151.918 235.692 152.167 235.969C152.417 236.247 152.555 236.606 152.555 236.98C152.555 237.353 152.417 237.712 152.167 237.99C151.918 238.267 151.575 238.442 151.204 238.482V238.482ZM170.948 234.764C170.512 234.764 170.085 234.893 169.722 235.136C169.359 235.378 169.076 235.723 168.909 236.126C168.742 236.53 168.699 236.973 168.784 237.402C168.869 237.83 169.079 238.223 169.388 238.532C169.696 238.84 170.09 239.051 170.518 239.136C170.946 239.221 171.39 239.177 171.793 239.01C172.196 238.843 172.541 238.56 172.783 238.197C173.026 237.834 173.155 237.408 173.155 236.971C173.158 236.678 173.101 236.387 172.989 236.116C172.877 235.845 172.711 235.599 172.502 235.393C172.293 235.187 172.045 235.025 171.772 234.917C171.499 234.809 171.208 234.757 170.914 234.764H170.948ZM170.948 238.482C170.649 238.482 170.357 238.393 170.109 238.227C169.86 238.061 169.667 237.825 169.552 237.549C169.438 237.273 169.408 236.969 169.466 236.676C169.525 236.383 169.669 236.114 169.88 235.903C170.091 235.691 170.36 235.547 170.654 235.489C170.947 235.431 171.25 235.461 171.527 235.575C171.803 235.689 172.039 235.883 172.205 236.132C172.371 236.38 172.459 236.672 172.459 236.971C172.462 237.173 172.423 237.373 172.346 237.56C172.269 237.747 172.154 237.916 172.01 238.057C171.866 238.198 171.694 238.309 171.506 238.382C171.317 238.455 171.116 238.489 170.914 238.482H170.948ZM190.744 234.764C190.307 234.761 189.878 234.887 189.513 235.128C189.148 235.368 188.863 235.712 188.693 236.115C188.523 236.518 188.477 236.962 188.56 237.391C188.644 237.82 188.852 238.215 189.16 238.526C189.468 238.836 189.862 239.048 190.29 239.134C190.719 239.221 191.163 239.178 191.568 239.012C191.972 238.845 192.318 238.562 192.561 238.199C192.804 237.836 192.934 237.408 192.934 236.971C192.934 236.68 192.876 236.391 192.764 236.122C192.653 235.854 192.488 235.61 192.282 235.404C192.075 235.199 191.83 235.037 191.56 234.927C191.29 234.817 191.001 234.762 190.71 234.764H190.744ZM190.744 238.482C190.533 238.504 190.32 238.482 190.119 238.417C189.917 238.352 189.731 238.245 189.574 238.103C189.416 237.961 189.29 237.788 189.204 237.595C189.118 237.401 189.073 237.191 189.073 236.98C189.073 236.768 189.118 236.558 189.204 236.364C189.29 236.171 189.416 235.998 189.574 235.856C189.731 235.714 189.917 235.607 190.119 235.542C190.32 235.477 190.533 235.455 190.744 235.477C191.115 235.516 191.458 235.692 191.708 235.969C191.957 236.247 192.095 236.606 192.095 236.98C192.095 237.353 191.957 237.712 191.708 237.99C191.458 238.267 191.115 238.442 190.744 238.482V238.482ZM121.51 279.652C121.078 279.652 120.655 279.78 120.295 280.02C119.935 280.26 119.655 280.601 119.488 281C119.322 281.4 119.278 281.839 119.361 282.263C119.444 282.688 119.651 283.078 119.955 283.385C120.26 283.692 120.649 283.902 121.072 283.988C121.496 284.075 121.936 284.034 122.336 283.871C122.737 283.707 123.08 283.429 123.323 283.071C123.565 282.714 123.697 282.292 123.7 281.859C123.7 281.277 123.47 280.718 123.06 280.305C122.649 279.891 122.092 279.657 121.51 279.652V279.652ZM121.51 283.353C121.115 283.349 120.738 283.19 120.458 282.911C120.179 282.632 120.02 282.254 120.016 281.859C120.055 281.488 120.231 281.145 120.508 280.896C120.786 280.646 121.145 280.508 121.519 280.508C121.892 280.508 122.251 280.646 122.529 280.896C122.806 281.145 122.982 281.488 123.021 281.859C123.017 282.257 122.855 282.637 122.572 282.917C122.29 283.197 121.908 283.353 121.51 283.353V283.353ZM141.306 279.652C140.874 279.656 140.453 279.786 140.095 280.028C139.738 280.27 139.46 280.613 139.296 281.012C139.132 281.412 139.091 281.851 139.176 282.274C139.261 282.697 139.469 283.086 139.774 283.391C140.079 283.696 140.468 283.904 140.891 283.989C141.315 284.075 141.754 284.033 142.153 283.869C142.552 283.705 142.895 283.427 143.137 283.07C143.379 282.712 143.509 282.291 143.513 281.859C143.515 281.569 143.46 281.281 143.349 281.012C143.239 280.743 143.077 280.499 142.871 280.294C142.666 280.088 142.422 279.926 142.153 279.816C141.884 279.706 141.596 279.65 141.306 279.652V279.652ZM141.306 283.353C140.911 283.349 140.533 283.19 140.254 282.911C139.975 282.632 139.816 282.254 139.812 281.859C139.809 281.663 139.847 281.467 139.921 281.285C139.995 281.103 140.105 280.937 140.244 280.798C140.383 280.659 140.549 280.549 140.731 280.474C140.914 280.4 141.109 280.363 141.306 280.365C141.503 280.361 141.7 280.396 141.883 280.47C142.066 280.543 142.233 280.653 142.372 280.793C142.512 280.932 142.622 281.099 142.695 281.282C142.769 281.466 142.804 281.662 142.8 281.859C142.802 282.056 142.765 282.251 142.691 282.434C142.616 282.616 142.506 282.782 142.367 282.921C142.228 283.06 142.062 283.17 141.88 283.244C141.698 283.319 141.503 283.356 141.306 283.353V283.353ZM161.084 279.652C160.652 279.652 160.229 279.78 159.869 280.02C159.51 280.26 159.229 280.601 159.063 281C158.896 281.4 158.852 281.839 158.935 282.263C159.018 282.688 159.225 283.078 159.53 283.385C159.835 283.692 160.223 283.902 160.647 283.988C161.071 284.075 161.51 284.034 161.911 283.871C162.311 283.707 162.655 283.429 162.897 283.071C163.14 282.714 163.271 282.292 163.275 281.859C163.275 281.568 163.217 281.28 163.105 281.011C162.993 280.742 162.829 280.498 162.622 280.293C162.415 280.088 162.17 279.925 161.9 279.815C161.631 279.705 161.342 279.65 161.05 279.652H161.084ZM161.084 283.353C160.69 283.349 160.312 283.19 160.033 282.911C159.754 282.632 159.595 282.254 159.59 281.859C159.63 281.488 159.805 281.145 160.083 280.896C160.36 280.646 160.72 280.508 161.093 280.508C161.466 280.508 161.826 280.646 162.103 280.896C162.381 281.145 162.556 281.488 162.595 281.859C162.593 282.059 162.551 282.257 162.472 282.44C162.393 282.624 162.279 282.79 162.135 282.929C161.991 283.068 161.821 283.177 161.635 283.25C161.449 283.323 161.25 283.358 161.05 283.353H161.084ZM180.846 279.652C180.559 279.654 180.274 279.713 180.009 279.825C179.744 279.938 179.504 280.101 179.303 280.306C179.101 280.511 178.941 280.753 178.833 281.02C178.725 281.286 178.671 281.572 178.673 281.859C178.67 282.08 178.711 282.299 178.792 282.504C178.996 282.369 179.182 282.216 179.369 282.063C179.361 281.995 179.361 281.927 179.369 281.859C179.367 281.663 179.404 281.467 179.478 281.285C179.552 281.103 179.662 280.937 179.802 280.798C179.941 280.659 180.106 280.549 180.289 280.474C180.471 280.4 180.666 280.363 180.863 280.365C181.074 280.366 181.283 280.412 181.474 280.501L182.103 280.026C181.721 279.771 181.271 279.641 180.812 279.652H180.846ZM112.936 265.188C112.936 265.459 112.818 265.714 112.767 265.968C112.903 266.104 113.01 266.266 113.083 266.443C113.156 266.621 113.193 266.812 113.191 267.004C113.186 267.29 113.101 267.57 112.944 267.81C112.788 268.05 112.568 268.241 112.308 268.362L112.155 269.126C112.572 269.035 112.953 268.825 113.251 268.52C113.55 268.216 113.753 267.831 113.836 267.413C113.919 266.994 113.878 266.561 113.718 266.166C113.558 265.771 113.287 265.431 112.936 265.188V265.188ZM131.476 264.797C131.043 264.794 130.618 264.919 130.256 265.157C129.894 265.395 129.611 265.734 129.442 266.133C129.273 266.532 129.226 266.972 129.308 267.398C129.389 267.823 129.594 268.215 129.898 268.524C130.202 268.832 130.591 269.044 131.015 269.132C131.439 269.219 131.88 269.18 132.281 269.017C132.683 268.854 133.027 268.576 133.27 268.218C133.514 267.86 133.646 267.437 133.649 267.004C133.649 266.711 133.591 266.422 133.478 266.152C133.365 265.882 133.199 265.637 132.991 265.431C132.782 265.226 132.535 265.064 132.263 264.955C131.991 264.846 131.701 264.793 131.408 264.797H131.476ZM131.476 268.498C131.175 268.505 130.879 268.422 130.626 268.259C130.372 268.096 130.173 267.862 130.054 267.585C129.935 267.309 129.901 267.003 129.957 266.707C130.013 266.412 130.156 266.139 130.367 265.925C130.579 265.711 130.85 265.565 131.145 265.506C131.44 265.447 131.746 265.477 132.024 265.593C132.302 265.709 132.538 265.905 132.704 266.157C132.869 266.408 132.956 266.703 132.953 267.004C132.955 267.205 132.917 267.405 132.839 267.591C132.762 267.776 132.647 267.945 132.503 268.084C132.358 268.224 132.186 268.333 131.998 268.404C131.81 268.475 131.609 268.507 131.408 268.498H131.476ZM151.238 264.797C150.805 264.797 150.382 264.925 150.023 265.165C149.663 265.405 149.382 265.746 149.216 266.145C149.05 266.544 149.005 266.984 149.088 267.408C149.171 267.833 149.378 268.223 149.683 268.53C149.988 268.837 150.376 269.047 150.8 269.133C151.224 269.219 151.663 269.178 152.064 269.015C152.464 268.852 152.808 268.574 153.05 268.216C153.293 267.858 153.424 267.437 153.428 267.004C153.428 266.71 153.369 266.419 153.255 266.148C153.141 265.876 152.974 265.631 152.763 265.425C152.553 265.22 152.304 265.058 152.03 264.95C151.756 264.842 151.464 264.79 151.17 264.797H151.238ZM151.238 268.498C150.937 268.501 150.643 268.415 150.392 268.251C150.141 268.086 149.944 267.85 149.828 267.573C149.711 267.296 149.68 266.991 149.738 266.697C149.796 266.402 149.94 266.131 150.152 265.919C150.365 265.706 150.635 265.562 150.93 265.504C151.225 265.447 151.53 265.478 151.807 265.594C152.083 265.711 152.319 265.907 152.484 266.158C152.649 266.409 152.735 266.704 152.732 267.004C152.729 267.205 152.687 267.404 152.607 267.589C152.527 267.774 152.411 267.941 152.265 268.08C152.12 268.219 151.948 268.328 151.76 268.4C151.571 268.471 151.371 268.505 151.17 268.498H151.238ZM170.982 264.797C170.551 264.8 170.13 264.931 169.772 265.173C169.414 265.415 169.136 265.757 168.973 266.157C168.809 266.556 168.767 266.995 168.852 267.418C168.937 267.842 169.145 268.23 169.451 268.536C169.756 268.841 170.145 269.049 170.568 269.134C170.991 269.219 171.43 269.177 171.83 269.014C172.229 268.85 172.571 268.572 172.813 268.214C173.055 267.857 173.186 267.436 173.189 267.004C173.192 266.708 173.134 266.414 173.02 266.141C172.906 265.867 172.737 265.62 172.524 265.414C172.312 265.207 172.059 265.046 171.783 264.94C171.506 264.834 171.21 264.786 170.914 264.797H170.982ZM170.982 268.498C170.683 268.498 170.39 268.409 170.141 268.242C169.892 268.075 169.699 267.838 169.585 267.561C169.471 267.284 169.442 266.98 169.502 266.686C169.561 266.392 169.707 266.123 169.92 265.913C170.133 265.702 170.404 265.559 170.698 265.503C170.992 265.447 171.297 265.479 171.572 265.596C171.848 265.713 172.083 265.909 172.247 266.16C172.411 266.411 172.497 266.705 172.493 267.004C172.494 267.208 172.452 267.409 172.372 267.596C172.292 267.783 172.174 267.952 172.026 268.092C171.878 268.232 171.703 268.34 171.512 268.41C171.321 268.48 171.118 268.51 170.914 268.498H170.982ZM190.778 264.797C190.346 264.797 189.923 264.925 189.563 265.165C189.203 265.405 188.923 265.746 188.756 266.145C188.59 266.544 188.546 266.984 188.629 267.408C188.712 267.833 188.919 268.223 189.223 268.53C189.528 268.837 189.917 269.047 190.34 269.133C190.764 269.219 191.204 269.178 191.604 269.015C192.005 268.852 192.348 268.574 192.591 268.216C192.833 267.858 192.965 267.437 192.968 267.004C192.968 266.71 192.909 266.419 192.795 266.148C192.681 265.876 192.514 265.631 192.304 265.425C192.093 265.22 191.844 265.058 191.57 264.95C191.297 264.842 191.004 264.79 190.71 264.797H190.778ZM190.778 268.498C190.478 268.501 190.183 268.415 189.932 268.251C189.681 268.086 189.485 267.85 189.368 267.573C189.252 267.296 189.221 266.991 189.278 266.697C189.336 266.402 189.48 266.131 189.693 265.919C189.905 265.706 190.176 265.562 190.47 265.504C190.765 265.447 191.07 265.478 191.347 265.594C191.624 265.711 191.86 265.907 192.024 266.158C192.189 266.409 192.275 266.704 192.272 267.004C192.27 267.205 192.227 267.404 192.147 267.589C192.067 267.774 191.951 267.941 191.806 268.08C191.66 268.219 191.488 268.328 191.3 268.4C191.112 268.471 190.911 268.505 190.71 268.498H190.778ZM121.578 309.685C121.145 309.685 120.721 309.814 120.361 310.054C120.001 310.295 119.72 310.637 119.555 311.037C119.389 311.438 119.345 311.878 119.43 312.303C119.514 312.728 119.723 313.118 120.029 313.424C120.336 313.73 120.726 313.939 121.151 314.023C121.576 314.108 122.016 314.065 122.416 313.899C122.816 313.733 123.158 313.452 123.399 313.092C123.64 312.732 123.768 312.309 123.768 311.875C123.768 311.582 123.709 311.292 123.595 311.021C123.481 310.751 123.313 310.507 123.103 310.302C122.892 310.098 122.643 309.938 122.369 309.832C122.095 309.726 121.803 309.676 121.51 309.685H121.578ZM121.578 313.386C121.279 313.386 120.987 313.298 120.738 313.132C120.49 312.966 120.296 312.73 120.182 312.454C120.068 312.178 120.038 311.874 120.096 311.581C120.154 311.288 120.298 311.018 120.509 310.807C120.721 310.596 120.99 310.452 121.283 310.394C121.576 310.335 121.88 310.365 122.156 310.479C122.432 310.594 122.668 310.787 122.834 311.036C123 311.284 123.089 311.577 123.089 311.875C123.089 312.08 123.048 312.282 122.968 312.47C122.888 312.658 122.77 312.827 122.623 312.969C122.475 313.11 122.3 313.22 122.109 313.292C121.918 313.363 121.714 313.396 121.51 313.386H121.578ZM141.306 309.685C140.739 309.689 140.197 309.913 139.791 310.309C139.386 310.704 139.15 311.241 139.133 311.808L139.981 311.213C140.087 311.001 140.242 310.817 140.435 310.678C140.627 310.539 140.85 310.449 141.085 310.415V310.415L141.917 309.804C141.721 309.732 141.514 309.692 141.306 309.685V309.685ZM111.663 294.813C111.082 294.813 110.525 295.044 110.114 295.455C109.704 295.865 109.473 296.422 109.473 297.003C109.473 297.584 109.704 298.141 110.114 298.552C110.525 298.963 111.082 299.193 111.663 299.193C112.244 299.193 112.801 298.963 113.212 298.552C113.622 298.141 113.853 297.584 113.853 297.003C113.853 296.422 113.622 295.865 113.212 295.455C112.801 295.044 112.244 294.813 111.663 294.813V294.813ZM111.663 298.514C111.368 298.514 111.079 298.427 110.833 298.262C110.587 298.098 110.396 297.865 110.283 297.592C110.17 297.319 110.14 297.019 110.198 296.729C110.255 296.439 110.398 296.173 110.607 295.964C110.816 295.755 111.082 295.613 111.372 295.555C111.661 295.497 111.962 295.527 112.235 295.64C112.508 295.753 112.741 295.945 112.905 296.19C113.069 296.436 113.157 296.725 113.157 297.02C113.148 297.418 112.983 297.796 112.697 298.073C112.411 298.349 112.027 298.502 111.629 298.497L111.663 298.514ZM131.442 294.813C131.009 294.81 130.584 294.935 130.222 295.173C129.86 295.411 129.577 295.751 129.408 296.149C129.239 296.548 129.192 296.988 129.274 297.414C129.355 297.839 129.56 298.231 129.864 298.54C130.168 298.848 130.557 299.06 130.981 299.148C131.405 299.236 131.846 299.196 132.247 299.033C132.649 298.87 132.993 298.592 133.236 298.234C133.48 297.876 133.612 297.453 133.615 297.02C133.615 296.435 133.382 295.873 132.969 295.46C132.555 295.046 131.993 294.813 131.408 294.813H131.442ZM131.442 298.514C131.146 298.518 130.855 298.433 130.607 298.271C130.359 298.109 130.165 297.876 130.049 297.604C129.934 297.331 129.902 297.03 129.957 296.739C130.013 296.448 130.154 296.181 130.362 295.97C130.571 295.759 130.837 295.615 131.127 295.556C131.417 295.497 131.719 295.526 131.993 295.638C132.267 295.751 132.501 295.942 132.666 296.188C132.831 296.434 132.919 296.724 132.919 297.02C132.919 297.217 132.88 297.412 132.803 297.593C132.727 297.775 132.615 297.939 132.474 298.077C132.334 298.214 132.167 298.323 131.984 298.395C131.8 298.467 131.605 298.502 131.408 298.497L131.442 298.514ZM151.204 294.813C150.771 294.813 150.348 294.941 149.989 295.181C149.629 295.421 149.348 295.762 149.182 296.161C149.016 296.56 148.971 297 149.054 297.424C149.138 297.849 149.344 298.239 149.649 298.546C149.954 298.853 150.342 299.063 150.766 299.149C151.19 299.236 151.63 299.195 152.03 299.031C152.43 298.868 152.774 298.59 153.016 298.232C153.259 297.874 153.39 297.453 153.394 297.02C153.394 296.729 153.336 296.441 153.224 296.172C153.112 295.903 152.948 295.659 152.741 295.454C152.534 295.248 152.289 295.086 152.019 294.976C151.75 294.866 151.461 294.811 151.17 294.813H151.204ZM151.204 298.514C150.908 298.514 150.619 298.427 150.374 298.262C150.128 298.098 149.936 297.865 149.823 297.592C149.71 297.319 149.681 297.019 149.738 296.729C149.796 296.439 149.938 296.173 150.147 295.964C150.356 295.755 150.622 295.613 150.912 295.555C151.202 295.497 151.502 295.527 151.775 295.64C152.048 295.753 152.282 295.945 152.446 296.19C152.61 296.436 152.698 296.725 152.698 297.02C152.689 297.418 152.523 297.796 152.237 298.073C151.951 298.349 151.567 298.502 151.17 298.497L151.204 298.514ZM111.663 324.846C111.082 324.846 110.525 325.077 110.114 325.488C109.704 325.898 109.473 326.455 109.473 327.036C109.473 327.617 109.704 328.174 110.114 328.585C110.525 328.996 111.082 329.226 111.663 329.226C112.244 329.226 112.801 328.996 113.212 328.585C113.622 328.174 113.853 327.617 113.853 327.036C113.853 326.455 113.622 325.898 113.212 325.488C112.801 325.077 112.244 324.846 111.663 324.846V324.846ZM111.663 328.547C111.363 328.551 111.068 328.464 110.817 328.3C110.566 328.135 110.37 327.899 110.254 327.622C110.137 327.346 110.106 327.04 110.163 326.746C110.221 326.451 110.365 326.18 110.578 325.968C110.79 325.756 111.061 325.611 111.356 325.554C111.65 325.496 111.955 325.527 112.232 325.644C112.509 325.76 112.745 325.956 112.91 326.207C113.074 326.459 113.16 326.753 113.157 327.053C113.155 327.252 113.114 327.448 113.036 327.63C112.958 327.813 112.844 327.978 112.703 328.117C112.561 328.256 112.393 328.365 112.209 328.439C112.025 328.513 111.828 328.55 111.629 328.547H111.663Z" fill="black"/>
<path d="M138.708 189.434C106.129 223.389 58.6088 309.244 52.7346 321.57C48.7449 329.94 92.4618 351.976 94.3293 345.898C96.7061 338.106 134.77 241.98 144.888 205.699C150.474 185.699 145.448 182.423 138.708 189.434Z" fill="#F7A9A0"/>
<path d="M96.3832 340.143C94.8552 344.303 89.5922 361.993 86.0269 364.2C82.4617 366.408 63.3621 365.898 53.7698 365.898C44.1776 365.898 42.2761 363.233 42.4289 359.922C42.5817 356.612 62.8018 355.983 62.8018 355.983C62.8018 355.983 35.8926 363.691 29.1355 364.964C22.3785 366.238 6.75927 370.16 4.51825 364.54C3.49961 362.01 7.76094 359.447 7.76094 359.447C7.76094 359.447 1.22463 361.365 0.172026 358.106C-0.999418 354.404 4.19568 352.367 4.19568 352.367C4.19568 352.367 0.104116 353.182 0.0192283 350.177C-0.201478 343.386 25.4854 340.109 25.4854 340.109C25.4854 340.109 5.89343 349.651 5.24828 344.15C4.38243 336.527 44.5511 328.174 48.7275 324.864C51.4556 322.551 53.7247 319.746 55.4166 316.596L96.3832 340.143Z" fill="#F7A9A0"/>
<path d="M42.5644 361.636C42.4984 361.165 42.5455 360.686 42.702 360.237C42.8585 359.788 43.1198 359.383 43.4643 359.056C44.1543 358.423 44.9464 357.912 45.8071 357.545C47.5824 356.805 49.4244 356.236 51.3078 355.847C55.0938 354.879 58.9816 354.149 62.8355 353.198C58.8333 353.141 54.84 353.591 50.9513 354.54C48.975 354.989 47.0718 355.715 45.2978 356.696C44.3759 357.207 43.5673 357.9 42.921 358.733C42.6292 359.151 42.4441 359.634 42.3819 360.14C42.3198 360.646 42.3824 361.16 42.5644 361.636V361.636Z" fill="#263238"/>
<path d="M7.67651 359.48C10.4438 358.801 13.1772 358.02 15.8936 357.239C18.61 356.458 21.3264 355.541 24.0428 354.794L32.158 352.265C34.8574 351.416 37.5568 350.567 40.2902 349.752C37.43 350.065 34.5941 350.57 31.8015 351.263C29.0341 351.891 26.3008 352.689 23.5844 353.504C20.868 354.319 18.1686 355.202 15.5031 356.254C12.8377 357.307 10.2741 358.275 7.67651 359.48Z" fill="#263238"/>
<path d="M33.7874 343.029C31.1788 343.199 28.5858 343.556 26.0287 344.099C23.4608 344.608 20.9219 345.254 18.4228 346.034C15.9221 346.804 13.4677 347.717 11.0716 348.768C8.67213 349.808 6.34647 351.01 4.11084 352.367C6.58955 351.518 9.00034 350.567 11.4621 349.735C13.9238 348.903 16.3516 348.038 18.8303 347.308C21.309 346.578 23.7877 345.814 26.2664 345.084C28.7451 344.354 31.2578 343.725 33.7874 343.029Z" fill="#263238"/>
<path d="M29.8311 336.611C25.6134 336.941 21.4576 337.825 17.4716 339.243C13.4508 340.559 9.62494 342.409 6.09668 344.743C10.0864 343.317 13.9572 341.823 17.9809 340.516C22.0045 339.209 25.8584 337.902 29.8311 336.611Z" fill="#263238"/>
<path d="M104.464 226.021L142.493 227.362C145.226 217.808 147.458 208.117 149.182 198.331C151.101 184.307 146.347 180.318 133.257 191.692C124.514 199.349 104.464 226.021 104.464 226.021Z" fill="white"/>
<path opacity="0.2" d="M131.407 204.748C130.974 204.744 130.55 204.87 130.188 205.107C129.826 205.345 129.542 205.685 129.373 206.084C129.205 206.483 129.158 206.923 129.239 207.348C129.32 207.774 129.526 208.166 129.83 208.474C130.134 208.783 130.522 208.995 130.946 209.082C131.371 209.17 131.811 209.13 132.213 208.968C132.614 208.805 132.958 208.527 133.202 208.169C133.445 207.81 133.577 207.388 133.58 206.955C133.58 206.375 133.353 205.819 132.946 205.406C132.539 204.993 131.987 204.757 131.407 204.748V204.748ZM131.407 208.449C131.106 208.456 130.81 208.372 130.557 208.21C130.304 208.047 130.105 207.813 129.986 207.536C129.867 207.26 129.833 206.954 129.889 206.658C129.944 206.362 130.087 206.09 130.299 205.876C130.51 205.662 130.781 205.516 131.076 205.457C131.371 205.398 131.677 205.428 131.955 205.544C132.233 205.66 132.47 205.856 132.635 206.107C132.801 206.359 132.888 206.654 132.884 206.955C132.896 207.156 132.866 207.357 132.797 207.546C132.728 207.735 132.621 207.908 132.483 208.055C132.344 208.201 132.178 208.317 131.993 208.397C131.808 208.476 131.609 208.517 131.407 208.517V208.449ZM141.271 219.603C140.839 219.606 140.418 219.737 140.061 219.979C139.703 220.221 139.425 220.563 139.262 220.963C139.098 221.362 139.056 221.801 139.141 222.225C139.226 222.648 139.434 223.036 139.74 223.342C140.045 223.647 140.433 223.855 140.857 223.94C141.28 224.025 141.719 223.983 142.118 223.82C142.518 223.656 142.86 223.378 143.102 223.02C143.344 222.663 143.475 222.242 143.478 221.81C143.48 221.523 143.426 221.237 143.318 220.971C143.21 220.704 143.051 220.461 142.849 220.257C142.647 220.052 142.407 219.888 142.142 219.776C141.877 219.664 141.593 219.605 141.305 219.603H141.271ZM141.271 223.304C140.876 223.3 140.499 223.141 140.22 222.862C139.94 222.582 139.781 222.205 139.777 221.81C139.795 221.421 139.965 221.055 140.251 220.791C140.537 220.527 140.916 220.387 141.305 220.401C141.503 220.396 141.699 220.432 141.882 220.505C142.066 220.579 142.232 220.689 142.372 220.828C142.511 220.968 142.621 221.135 142.695 221.318C142.768 221.501 142.804 221.698 142.799 221.895C142.781 222.278 142.616 222.639 142.337 222.902C142.058 223.165 141.688 223.309 141.305 223.304H141.271ZM121.509 219.603C121.077 219.603 120.654 219.731 120.294 219.971C119.935 220.211 119.654 220.552 119.488 220.951C119.321 221.35 119.277 221.79 119.36 222.214C119.443 222.639 119.65 223.029 119.955 223.336C120.259 223.643 120.648 223.853 121.072 223.939C121.495 224.026 121.935 223.985 122.336 223.821C122.736 223.658 123.079 223.38 123.322 223.022C123.565 222.664 123.696 222.243 123.699 221.81C123.699 221.228 123.469 220.669 123.059 220.255C122.649 219.842 122.092 219.608 121.509 219.603V219.603ZM121.509 223.304C121.114 223.3 120.737 223.141 120.458 222.862C120.179 222.582 120.02 222.205 120.015 221.81C120.055 221.439 120.23 221.096 120.508 220.847C120.785 220.597 121.145 220.459 121.518 220.459C121.891 220.459 122.251 220.597 122.528 220.847C122.806 221.096 122.981 221.439 123.02 221.81C123.016 222.208 122.855 222.588 122.572 222.868C122.289 223.147 121.907 223.304 121.509 223.304V223.304ZM141.305 189.587C140.873 189.59 140.452 189.721 140.095 189.963C139.737 190.205 139.459 190.547 139.295 190.947C139.132 191.346 139.09 191.785 139.175 192.208C139.26 192.632 139.468 193.02 139.773 193.326C140.079 193.631 140.467 193.839 140.891 193.924C141.314 194.009 141.753 193.967 142.152 193.804C142.552 193.64 142.894 193.362 143.136 193.004C143.378 192.647 143.509 192.226 143.512 191.794C143.514 191.504 143.459 191.216 143.349 190.947C143.239 190.678 143.076 190.434 142.871 190.228C142.665 190.023 142.421 189.861 142.152 189.75C141.884 189.64 141.596 189.585 141.305 189.587V189.587ZM141.305 193.288C140.934 193.249 140.591 193.073 140.341 192.796C140.092 192.518 139.954 192.159 139.954 191.786C139.954 191.412 140.092 191.053 140.341 190.775C140.591 190.498 140.934 190.323 141.305 190.283C141.676 190.323 142.019 190.498 142.269 190.775C142.518 191.053 142.656 191.412 142.656 191.786C142.656 192.159 142.518 192.518 142.269 192.796C142.019 193.073 141.676 193.249 141.305 193.288V193.288Z" fill="black"/>
<path d="M137.91 227.192C138.334 227.192 142.239 227.192 142.51 227.192C143.071 225.019 143.614 222.829 144.208 220.656C144.497 219.57 144.819 218.483 145.142 217.413C145.465 216.344 145.838 214.867 146.161 213.814C146.161 213.783 146.173 213.752 146.195 213.73C146.218 213.708 146.248 213.695 146.279 213.695C146.311 213.695 146.341 213.708 146.363 213.73C146.386 213.752 146.398 213.783 146.398 213.814C146.11 215.223 145.855 216.259 145.617 217.464C145.38 218.67 145.142 219.637 144.87 220.707C144.31 222.982 143.801 225.427 143.173 227.668C141.468 227.642 139.767 227.506 138.079 227.26C138.079 227.26 137.791 227.192 137.91 227.192Z" fill="#263238"/>
<path d="M108.454 222.54C114.005 222.354 119.54 222.252 125.092 222.388C127.859 222.388 130.626 222.557 133.394 222.727C136.161 222.897 138.911 223.304 141.662 223.423C141.814 223.423 141.797 223.678 141.662 223.661C138.928 223.406 136.11 223.508 133.36 223.406C130.609 223.304 127.808 223.202 125.041 223.135C119.523 222.982 113.988 222.812 108.454 222.778C108.284 222.778 108.301 222.557 108.454 222.54Z" fill="#263238"/>
<path d="M155.532 179.656C144.123 180.793 147.179 192.287 152.137 197.567C155.532 201.081 162.323 204.629 166.194 203.237C170.065 201.845 167.009 193.051 167.009 193.051C167.009 193.051 173.443 199.282 175.837 196.582C178.231 193.883 167.348 178.433 155.532 179.656Z" fill="#E7E7E7"/>
<path d="M149.608 185.648C150.253 187.346 158.962 193.848 166.585 192.439C169.064 191.947 167.926 181.438 167.926 181.438V180.402L169.03 165.784L150.847 157.533L148.232 156.464C148.232 156.464 148.232 160.488 148.232 165.496V166.073C148.232 166.362 148.232 166.616 148.232 166.888C148.232 167.635 148.232 168.399 148.232 169.163C148.232 169.927 148.232 170.3 148.232 170.861V172.677C148.391 177.027 148.851 181.361 149.608 185.648V185.648Z" fill="#F7A9A0"/>
<path d="M148.284 165.428C150.292 169.196 153.098 172.482 156.505 175.056C159.911 177.63 163.838 179.431 168.011 180.335L169.115 165.717L150.932 157.466L148.318 156.396C148.318 156.396 148.284 160.42 148.284 165.428Z" fill="#263238"/>
<path d="M183.919 136.142C194.496 159.588 181.644 168.586 176.602 170.861C172.001 172.932 156.11 179.349 143.157 157.16C130.203 134.97 137.741 122.594 147.995 117.314C158.25 112.034 173.325 112.696 183.919 136.142Z" fill="#F7A9A0"/>
<path d="M174.514 132.289C173.954 132.411 173.387 132.502 172.816 132.56C172.222 132.763 171.577 132.763 170.983 132.56C170.808 132.458 170.673 132.301 170.6 132.113C170.526 131.925 170.517 131.718 170.575 131.525C170.748 131.158 171.015 130.844 171.349 130.614C171.683 130.384 172.072 130.248 172.477 130.217C173.286 130.042 174.131 130.169 174.853 130.574C174.994 130.686 175.102 130.836 175.164 131.005C175.226 131.174 175.24 131.357 175.205 131.534C175.17 131.711 175.087 131.875 174.965 132.008C174.843 132.141 174.687 132.238 174.514 132.289V132.289Z" fill="#263238"/>
<path d="M158.368 139.419C158.894 139.13 159.352 138.791 159.862 138.451C160.371 138.112 160.914 137.84 161.186 137.178C161.247 136.985 161.24 136.776 161.166 136.588C161.092 136.399 160.955 136.242 160.778 136.142C160.406 135.987 159.999 135.933 159.6 135.987C159.2 136.041 158.822 136.2 158.503 136.448C157.786 136.858 157.243 137.516 156.975 138.298C156.93 138.481 156.938 138.672 156.998 138.85C157.058 139.028 157.167 139.186 157.314 139.303C157.46 139.421 157.637 139.495 157.824 139.515C158.01 139.536 158.199 139.502 158.368 139.419V139.419Z" fill="#263238"/>
<path d="M164.445 144.206C164.445 144.206 164.445 144.342 164.445 144.393C165.158 146.006 165.719 147.958 164.445 149.096C164.445 149.096 164.445 149.214 164.445 149.18C166.143 148.196 165.396 145.598 164.445 144.206Z" fill="#263238"/>
<path d="M162.307 143.103C159.624 143.986 161.577 149.3 164.005 148.485C166.432 147.67 164.565 142.305 162.307 143.103Z" fill="#263238"/>
<path d="M161.372 143.765C161.015 144.24 160.761 144.936 160.218 145.208C159.674 145.479 158.91 145.208 158.282 144.749C158.282 144.749 158.197 144.749 158.282 144.834C158.639 145.87 159.42 146.77 160.557 146.532C161.695 146.294 162 145.14 161.864 144.019C161.779 143.799 161.508 143.578 161.372 143.765Z" fill="#263238"/>
<path d="M173.732 139.843C173.732 139.843 173.885 139.843 173.902 139.945C174.445 141.642 175.345 143.425 177.026 143.442C177.026 143.442 177.111 143.527 177.026 143.544C175.142 144.002 173.97 141.507 173.732 139.843Z" fill="#263238"/>
<path d="M174.581 137.585C177.161 136.43 179.284 141.677 176.89 142.678C174.496 143.68 172.425 138.553 174.581 137.585Z" fill="#263238"/>
<path d="M175.821 137.5C176.347 137.602 176.959 137.941 177.519 137.772C178.079 137.602 178.3 136.838 178.453 136.159C178.453 136.074 178.453 136.159 178.554 136.159C178.996 137.16 179.081 138.332 178.198 138.909C177.315 139.486 176.398 138.909 175.753 137.941C175.583 137.789 175.6 137.449 175.821 137.5Z" fill="#263238"/>
<path d="M174.225 148.112C174.225 148.112 175.498 150.421 175.922 151.507C175.922 151.626 175.702 151.779 175.311 151.949C174.39 152.508 173.333 152.803 172.255 152.803C171.178 152.803 170.121 152.508 169.199 151.949C169.081 151.864 169.199 151.694 169.318 151.711C171.17 152.158 173.116 151.997 174.87 151.252C174.87 150.896 172.561 147.348 172.748 147.263C173.672 147.01 174.625 146.878 175.583 146.872C173.087 141.966 169.828 137.501 167.4 132.577C167.386 132.542 167.385 132.503 167.397 132.467C167.408 132.43 167.431 132.399 167.463 132.378C167.494 132.356 167.531 132.346 167.569 132.348C167.607 132.35 167.643 132.365 167.671 132.391C171.312 137.068 174.48 142.095 177.128 147.399C177.467 148.095 174.768 148.129 174.225 148.112Z" fill="#263238"/>
<path d="M175.023 151.235C174.797 152.442 174.265 153.57 173.478 154.512C173.031 155.016 172.437 155.366 171.78 155.514C170.354 155.819 169.726 154.682 169.454 153.578C169.318 152.988 169.25 152.384 169.25 151.779C171.183 152.221 173.206 152.03 175.023 151.235Z" fill="#263238"/>
<path d="M173.563 154.511C173.116 155.015 172.522 155.366 171.865 155.513C170.439 155.819 169.811 154.681 169.54 153.578C170.22 153.269 170.982 153.194 171.71 153.362C172.437 153.531 173.089 153.935 173.563 154.511Z" fill="#FF9ABB"/>
<path d="M143.359 157.585C145.974 156.362 150.048 146.244 145.159 133.205C145.159 133.205 148.741 145.208 148.554 147.262C148.367 149.317 150.829 141.558 147.026 130.998C151.242 132.052 155.587 132.498 159.929 132.322C165.413 131.762 168.418 130.523 168.622 130.03C168.825 129.538 160.676 130.115 157.807 128.621C157.807 128.621 173.341 129.538 179.572 127.62C180.285 127.399 175.446 112.679 163.698 110.269C151.95 107.858 139.726 120.285 137.264 125.701C137.264 125.701 132.85 128.214 130.473 137.144C128.096 146.074 140.541 158.875 143.359 157.585Z" fill="#263238"/>
<path d="M147.689 157.279C147.689 157.279 139.727 151.557 136.959 154.647C134.192 157.737 142.053 167.329 146.586 167.414C147.169 167.468 147.758 167.402 148.315 167.221C148.873 167.04 149.388 166.748 149.829 166.362C150.27 165.977 150.629 165.505 150.883 164.977C151.136 164.449 151.28 163.874 151.305 163.289L147.689 157.279Z" fill="#F7A9A0"/>
<path d="M137.554 124.479C134.532 127.62 123.972 127.874 119.184 122.968C112.648 116.262 120.338 102.239 130.423 105.26C140.508 108.282 139.88 122.051 137.554 124.479Z" fill="#263238"/>
<path d="M119.235 109.369C117.536 111.907 116.482 114.821 116.162 117.858C116.019 119.292 116.324 120.734 117.036 121.987C117.747 123.24 118.83 124.241 120.135 124.853C121.458 125.539 122.869 126.041 124.328 126.347C125.791 126.702 127.289 126.89 128.793 126.907C131.872 126.959 134.898 126.097 137.486 124.428C135.145 126.658 132.074 127.961 128.844 128.095C127.229 128.195 125.608 128.081 124.023 127.756C122.417 127.45 120.862 126.919 119.405 126.177C117.884 125.394 116.631 124.177 115.806 122.679C115.028 121.163 114.743 119.442 114.991 117.756C115.513 114.592 116.994 111.664 119.235 109.369Z" fill="#263238"/>
</svg>
